ISO-10303-21;
HEADER;
/* Generated by software containing ST-Developer
 * from STEP Tools, Inc. (www.steptools.com) 
 */
/* OPTION: strings as raw bytes, not using required /X/ escapes */

FILE_DESCRIPTION(
/* description */ ('Unknown'),
/* implementation_level */ '2;1');

FILE_NAME(
/* name */ 'BPN08M4',
/* time_stamp */ '2018-10-17T14:36:54+01:00',
/* author */ ('Unknown'),
/* organization */ ('Unknown'),
/* preprocessor_version */ 'ST-DEVELOPER v16.7',
/* originating_system */ 'DEX',
/* authorisation */ $);

FILE_SCHEMA (('AUTOMOTIVE_DESIGN {1 0 10303 214 3 1 1}'));
ENDSEC;

DATA;
#10=PROPERTY_DEFINITION_REPRESENTATION(#14,#12);
#11=PROPERTY_DEFINITION_REPRESENTATION(#15,#13);
#12=REPRESENTATION('',(#16),#417);
#13=REPRESENTATION('',(#17),#417);
#14=PROPERTY_DEFINITION('pmi validation property','',#422);
#15=PROPERTY_DEFINITION('pmi validation property','',#422);
#16=VALUE_REPRESENTATION_ITEM('number of annotations',COUNT_MEASURE(0.));
#17=VALUE_REPRESENTATION_ITEM('number of views',COUNT_MEASURE(0.));
#18=SHAPE_REPRESENTATION_RELATIONSHIP('','',#269,#19);
#19=ADVANCED_BREP_SHAPE_REPRESENTATION('',(#267),#417);
#20=CYLINDRICAL_SURFACE('',#285,2.);
#21=CIRCLE('',#274,2.);
#22=CIRCLE('',#280,2.);
#23=ORIENTED_EDGE('',*,*,#87,.T.);
#24=ORIENTED_EDGE('',*,*,#88,.F.);
#25=ORIENTED_EDGE('',*,*,#89,.F.);
#26=ORIENTED_EDGE('',*,*,#90,.T.);
#27=ORIENTED_EDGE('',*,*,#91,.T.);
#28=ORIENTED_EDGE('',*,*,#92,.F.);
#29=ORIENTED_EDGE('',*,*,#93,.F.);
#30=ORIENTED_EDGE('',*,*,#88,.T.);
#31=ORIENTED_EDGE('',*,*,#94,.T.);
#32=ORIENTED_EDGE('',*,*,#95,.T.);
#33=ORIENTED_EDGE('',*,*,#96,.F.);
#34=ORIENTED_EDGE('',*,*,#97,.F.);
#35=ORIENTED_EDGE('',*,*,#92,.T.);
#36=ORIENTED_EDGE('',*,*,#98,.T.);
#37=ORIENTED_EDGE('',*,*,#99,.F.);
#38=ORIENTED_EDGE('',*,*,#100,.F.);
#39=ORIENTED_EDGE('',*,*,#96,.T.);
#40=ORIENTED_EDGE('',*,*,#101,.T.);
#41=ORIENTED_EDGE('',*,*,#102,.F.);
#42=ORIENTED_EDGE('',*,*,#103,.F.);
#43=ORIENTED_EDGE('',*,*,#99,.T.);
#44=ORIENTED_EDGE('',*,*,#104,.T.);
#45=ORIENTED_EDGE('',*,*,#105,.F.);
#46=ORIENTED_EDGE('',*,*,#106,.F.);
#47=ORIENTED_EDGE('',*,*,#102,.T.);
#48=ORIENTED_EDGE('',*,*,#107,.T.);
#49=ORIENTED_EDGE('',*,*,#108,.F.);
#50=ORIENTED_EDGE('',*,*,#109,.F.);
#51=ORIENTED_EDGE('',*,*,#105,.T.);
#52=ORIENTED_EDGE('',*,*,#110,.F.);
#53=ORIENTED_EDGE('',*,*,#111,.T.);
#54=ORIENTED_EDGE('',*,*,#112,.F.);
#55=ORIENTED_EDGE('',*,*,#113,.F.);
#56=ORIENTED_EDGE('',*,*,#108,.T.);
#57=ORIENTED_EDGE('',*,*,#114,.T.);
#58=ORIENTED_EDGE('',*,*,#115,.F.);
#59=ORIENTED_EDGE('',*,*,#116,.F.);
#60=ORIENTED_EDGE('',*,*,#112,.T.);
#61=ORIENTED_EDGE('',*,*,#117,.T.);
#62=ORIENTED_EDGE('',*,*,#90,.F.);
#63=ORIENTED_EDGE('',*,*,#118,.F.);
#64=ORIENTED_EDGE('',*,*,#115,.T.);
#65=ORIENTED_EDGE('',*,*,#89,.T.);
#66=ORIENTED_EDGE('',*,*,#93,.T.);
#67=ORIENTED_EDGE('',*,*,#97,.T.);
#68=ORIENTED_EDGE('',*,*,#100,.T.);
#69=ORIENTED_EDGE('',*,*,#103,.T.);
#70=ORIENTED_EDGE('',*,*,#106,.T.);
#71=ORIENTED_EDGE('',*,*,#109,.T.);
#72=ORIENTED_EDGE('',*,*,#113,.T.);
#73=ORIENTED_EDGE('',*,*,#116,.T.);
#74=ORIENTED_EDGE('',*,*,#118,.T.);
#75=ORIENTED_EDGE('',*,*,#87,.F.);
#76=ORIENTED_EDGE('',*,*,#117,.F.);
#77=ORIENTED_EDGE('',*,*,#114,.F.);
#78=ORIENTED_EDGE('',*,*,#111,.F.);
#79=ORIENTED_EDGE('',*,*,#107,.F.);
#80=ORIENTED_EDGE('',*,*,#104,.F.);
#81=ORIENTED_EDGE('',*,*,#101,.F.);
#82=ORIENTED_EDGE('',*,*,#98,.F.);
#83=ORIENTED_EDGE('',*,*,#95,.F.);
#84=ORIENTED_EDGE('',*,*,#91,.F.);
#85=ORIENTED_EDGE('',*,*,#94,.F.);
#86=ORIENTED_EDGE('',*,*,#110,.T.);
#87=EDGE_CURVE('',#119,#120,#141,.T.);
#88=EDGE_CURVE('',#121,#120,#142,.T.);
#89=EDGE_CURVE('',#122,#121,#143,.T.);
#90=EDGE_CURVE('',#122,#119,#144,.T.);
#91=EDGE_CURVE('',#120,#123,#145,.T.);
#92=EDGE_CURVE('',#124,#123,#146,.T.);
#93=EDGE_CURVE('',#121,#124,#147,.T.);
#94=EDGE_CURVE('',#125,#125,#21,.T.);
#95=EDGE_CURVE('',#123,#126,#148,.T.);
#96=EDGE_CURVE('',#127,#126,#149,.T.);
#97=EDGE_CURVE('',#124,#127,#150,.T.);
#98=EDGE_CURVE('',#126,#128,#151,.T.);
#99=EDGE_CURVE('',#129,#128,#152,.T.);
#100=EDGE_CURVE('',#127,#129,#153,.T.);
#101=EDGE_CURVE('',#128,#130,#154,.T.);
#102=EDGE_CURVE('',#131,#130,#155,.T.);
#103=EDGE_CURVE('',#129,#131,#156,.T.);
#104=EDGE_CURVE('',#130,#132,#157,.T.);
#105=EDGE_CURVE('',#133,#132,#158,.T.);
#106=EDGE_CURVE('',#131,#133,#159,.T.);
#107=EDGE_CURVE('',#132,#134,#160,.T.);
#108=EDGE_CURVE('',#135,#134,#161,.T.);
#109=EDGE_CURVE('',#133,#135,#162,.T.);
#110=EDGE_CURVE('',#136,#136,#22,.F.);
#111=EDGE_CURVE('',#134,#137,#163,.T.);
#112=EDGE_CURVE('',#138,#137,#164,.T.);
#113=EDGE_CURVE('',#135,#138,#165,.T.);
#114=EDGE_CURVE('',#137,#139,#166,.T.);
#115=EDGE_CURVE('',#140,#139,#167,.T.);
#116=EDGE_CURVE('',#138,#140,#168,.T.);
#117=EDGE_CURVE('',#139,#119,#169,.T.);
#118=EDGE_CURVE('',#140,#122,#170,.T.);
#119=VERTEX_POINT('',#351);
#120=VERTEX_POINT('',#352);
#121=VERTEX_POINT('',#354);
#122=VERTEX_POINT('',#356);
#123=VERTEX_POINT('',#360);
#124=VERTEX_POINT('',#362);
#125=VERTEX_POINT('',#366);
#126=VERTEX_POINT('',#368);
#127=VERTEX_POINT('',#370);
#128=VERTEX_POINT('',#374);
#129=VERTEX_POINT('',#376);
#130=VERTEX_POINT('',#380);
#131=VERTEX_POINT('',#382);
#132=VERTEX_POINT('',#386);
#133=VERTEX_POINT('',#388);
#134=VERTEX_POINT('',#392);
#135=VERTEX_POINT('',#394);
#136=VERTEX_POINT('',#398);
#137=VERTEX_POINT('',#400);
#138=VERTEX_POINT('',#402);
#139=VERTEX_POINT('',#406);
#140=VERTEX_POINT('',#408);
#141=LINE('',#350,#171);
#142=LINE('',#353,#172);
#143=LINE('',#355,#173);
#144=LINE('',#357,#174);
#145=LINE('',#359,#175);
#146=LINE('',#361,#176);
#147=LINE('',#363,#177);
#148=LINE('',#367,#178);
#149=LINE('',#369,#179);
#150=LINE('',#371,#180);
#151=LINE('',#373,#181);
#152=LINE('',#375,#182);
#153=LINE('',#377,#183);
#154=LINE('',#379,#184);
#155=LINE('',#381,#185);
#156=LINE('',#383,#186);
#157=LINE('',#385,#187);
#158=LINE('',#387,#188);
#159=LINE('',#389,#189);
#160=LINE('',#391,#190);
#161=LINE('',#393,#191);
#162=LINE('',#395,#192);
#163=LINE('',#399,#193);
#164=LINE('',#401,#194);
#165=LINE('',#403,#195);
#166=LINE('',#405,#196);
#167=LINE('',#407,#197);
#168=LINE('',#409,#198);
#169=LINE('',#411,#199);
#170=LINE('',#412,#200);
#171=VECTOR('',#290,1000.);
#172=VECTOR('',#291,1000.);
#173=VECTOR('',#292,1000.);
#174=VECTOR('',#293,1000.);
#175=VECTOR('',#296,1000.);
#176=VECTOR('',#297,1000.);
#177=VECTOR('',#298,1000.);
#178=VECTOR('',#303,1000.);
#179=VECTOR('',#304,1000.);
#180=VECTOR('',#305,1000.);
#181=VECTOR('',#308,1000.);
#182=VECTOR('',#309,1000.);
#183=VECTOR('',#310,1000.);
#184=VECTOR('',#313,1000.);
#185=VECTOR('',#314,1000.);
#186=VECTOR('',#315,1000.);
#187=VECTOR('',#318,1000.);
#188=VECTOR('',#319,1000.);
#189=VECTOR('',#320,1000.);
#190=VECTOR('',#323,1000.);
#191=VECTOR('',#324,1000.);
#192=VECTOR('',#325,1000.);
#193=VECTOR('',#330,1000.);
#194=VECTOR('',#331,1000.);
#195=VECTOR('',#332,1000.);
#196=VECTOR('',#335,1000.);
#197=VECTOR('',#336,1000.);
#198=VECTOR('',#337,1000.);
#199=VECTOR('',#340,1000.);
#200=VECTOR('',#341,1000.);
#201=EDGE_LOOP('',(#23,#24,#25,#26));
#202=EDGE_LOOP('',(#27,#28,#29,#30));
#203=EDGE_LOOP('',(#31));
#204=EDGE_LOOP('',(#32,#33,#34,#35));
#205=EDGE_LOOP('',(#36,#37,#38,#39));
#206=EDGE_LOOP('',(#40,#41,#42,#43));
#207=EDGE_LOOP('',(#44,#45,#46,#47));
#208=EDGE_LOOP('',(#48,#49,#50,#51));
#209=EDGE_LOOP('',(#52));
#210=EDGE_LOOP('',(#53,#54,#55,#56));
#211=EDGE_LOOP('',(#57,#58,#59,#60));
#212=EDGE_LOOP('',(#61,#62,#63,#64));
#213=EDGE_LOOP('',(#65,#66,#67,#68,#69,#70,#71,#72,#73,#74));
#214=EDGE_LOOP('',(#75,#76,#77,#78,#79,#80,#81,#82,#83,#84));
#215=EDGE_LOOP('',(#85));
#216=EDGE_LOOP('',(#86));
#217=FACE_BOUND('',#201,.T.);
#218=FACE_BOUND('',#202,.T.);
#219=FACE_BOUND('',#203,.T.);
#220=FACE_BOUND('',#204,.T.);
#221=FACE_BOUND('',#205,.T.);
#222=FACE_BOUND('',#206,.T.);
#223=FACE_BOUND('',#207,.T.);
#224=FACE_BOUND('',#208,.T.);
#225=FACE_BOUND('',#209,.T.);
#226=FACE_BOUND('',#210,.T.);
#227=FACE_BOUND('',#211,.T.);
#228=FACE_BOUND('',#212,.T.);
#229=FACE_BOUND('',#213,.T.);
#230=FACE_BOUND('',#214,.T.);
#231=FACE_BOUND('',#215,.T.);
#232=FACE_BOUND('',#216,.T.);
#233=PLANE('',#271);
#234=PLANE('',#272);
#235=PLANE('',#273);
#236=PLANE('',#275);
#237=PLANE('',#276);
#238=PLANE('',#277);
#239=PLANE('',#278);
#240=PLANE('',#279);
#241=PLANE('',#281);
#242=PLANE('',#282);
#243=PLANE('',#283);
#244=PLANE('',#284);
#245=ADVANCED_FACE('',(#217),#233,.F.);
#246=ADVANCED_FACE('',(#218),#234,.F.);
#247=ADVANCED_FACE('',(#219,#220),#235,.F.);
#248=ADVANCED_FACE('',(#221),#236,.F.);
#249=ADVANCED_FACE('',(#222),#237,.F.);
#250=ADVANCED_FACE('',(#223),#238,.F.);
#251=ADVANCED_FACE('',(#224),#239,.F.);
#252=ADVANCED_FACE('',(#225,#226),#240,.F.);
#253=ADVANCED_FACE('',(#227),#241,.F.);
#254=ADVANCED_FACE('',(#228),#242,.F.);
#255=ADVANCED_FACE('',(#229),#243,.F.);
#256=ADVANCED_FACE('',(#230),#244,.T.);
#257=ADVANCED_FACE('',(#231,#232),#20,.F.);
#258=CLOSED_SHELL('',(#245,#246,#247,#248,#249,#250,#251,#252,#253,#254,
#255,#256,#257));
#259=STYLED_ITEM('',(#260),#267);
#260=PRESENTATION_STYLE_ASSIGNMENT((#261));
#261=SURFACE_STYLE_USAGE(.BOTH.,#262);
#262=SURFACE_SIDE_STYLE('',(#263));
#263=SURFACE_STYLE_FILL_AREA(#264);
#264=FILL_AREA_STYLE('',(#265));
#265=FILL_AREA_STYLE_COLOUR('',#266);
#266=COLOUR_RGB('',0.819999992847443,0.819999992847443,0.819999992847443);
#267=MANIFOLD_SOLID_BREP('2.11.08.M6',#258);
#268=SHAPE_DEFINITION_REPRESENTATION(#422,#269);
#269=SHAPE_REPRESENTATION('BPN08M4',(#270),#417);
#270=AXIS2_PLACEMENT_3D('',#348,#286,#287);
#271=AXIS2_PLACEMENT_3D('',#349,#288,#289);
#272=AXIS2_PLACEMENT_3D('',#358,#294,#295);
#273=AXIS2_PLACEMENT_3D('',#364,#299,#300);
#274=AXIS2_PLACEMENT_3D('',#365,#301,#302);
#275=AXIS2_PLACEMENT_3D('',#372,#306,#307);
#276=AXIS2_PLACEMENT_3D('',#378,#311,#312);
#277=AXIS2_PLACEMENT_3D('',#384,#316,#317);
#278=AXIS2_PLACEMENT_3D('',#390,#321,#322);
#279=AXIS2_PLACEMENT_3D('',#396,#326,#327);
#280=AXIS2_PLACEMENT_3D('',#397,#328,#329);
#281=AXIS2_PLACEMENT_3D('',#404,#333,#334);
#282=AXIS2_PLACEMENT_3D('',#410,#338,#339);
#283=AXIS2_PLACEMENT_3D('',#413,#342,#343);
#284=AXIS2_PLACEMENT_3D('',#414,#344,#345);
#285=AXIS2_PLACEMENT_3D('',#415,#346,#347);
#286=DIRECTION('',(0.,0.,1.));
#287=DIRECTION('',(1.,0.,0.));
#288=DIRECTION('',(1.,0.,0.));
#289=DIRECTION('',(0.,1.,0.));
#290=DIRECTION('',(0.,0.,-1.));
#291=DIRECTION('',(0.,1.,0.));
#292=DIRECTION('',(0.,0.,-1.));
#293=DIRECTION('',(0.,1.,0.));
#294=DIRECTION('',(0.707106781186548,0.,0.707106781186548));
#295=DIRECTION('',(-0.707106781186548,0.,0.707106781186548));
#296=DIRECTION('',(0.707106781186548,0.,-0.707106781186548));
#297=DIRECTION('',(0.,1.,0.));
#298=DIRECTION('',(0.707106781186548,0.,-0.707106781186548));
#299=DIRECTION('',(-1.17211045674109E-16,0.,1.));
#300=DIRECTION('',(-1.,0.,-1.17211045674109E-16));
#301=DIRECTION('',(-1.17211045674109E-16,0.,1.));
#302=DIRECTION('',(1.,0.,1.17211045674109E-16));
#303=DIRECTION('',(1.,0.,1.17211045674109E-16));
#304=DIRECTION('',(0.,1.,0.));
#305=DIRECTION('',(1.,0.,1.17211045674109E-16));
#306=DIRECTION('',(-0.707106781186548,0.,0.707106781186547));
#307=DIRECTION('',(-0.707106781186547,0.,-0.707106781186548));
#308=DIRECTION('',(0.707106781186547,0.,0.707106781186548));
#309=DIRECTION('',(0.,1.,0.));
#310=DIRECTION('',(0.707106781186547,0.,0.707106781186548));
#311=DIRECTION('',(-1.,0.,0.));
#312=DIRECTION('',(0.,-1.,0.));
#313=DIRECTION('',(0.,0.,1.));
#314=DIRECTION('',(0.,1.,0.));
#315=DIRECTION('',(0.,0.,1.));
#316=DIRECTION('',(0.,0.,-1.));
#317=DIRECTION('',(0.,1.,0.));
#318=DIRECTION('',(-1.,0.,0.));
#319=DIRECTION('',(0.,1.,0.));
#320=DIRECTION('',(-1.,0.,0.));
#321=DIRECTION('',(-1.,0.,0.));
#322=DIRECTION('',(0.,-1.,0.));
#323=DIRECTION('',(0.,0.,1.));
#324=DIRECTION('',(0.,1.,0.));
#325=DIRECTION('',(0.,0.,1.));
#326=DIRECTION('',(0.,0.,-1.));
#327=DIRECTION('',(0.,1.,0.));
#328=DIRECTION('',(0.,0.,-1.));
#329=DIRECTION('',(-1.,0.,0.));
#330=DIRECTION('',(-1.,0.,0.));
#331=DIRECTION('',(0.,1.,0.));
#332=DIRECTION('',(-1.,0.,0.));
#333=DIRECTION('',(1.,0.,0.));
#334=DIRECTION('',(0.,1.,0.));
#335=DIRECTION('',(0.,0.,-1.));
#336=DIRECTION('',(0.,1.,0.));
#337=DIRECTION('',(0.,0.,-1.));
#338=DIRECTION('',(0.,0.,-1.));
#339=DIRECTION('',(0.,1.,0.));
#340=DIRECTION('',(-1.,0.,0.));
#341=DIRECTION('',(-1.,0.,0.));
#342=DIRECTION('',(0.,1.,0.));
#343=DIRECTION('',(-1.,0.,0.));
#344=DIRECTION('',(0.,1.,0.));
#345=DIRECTION('',(-1.,0.,0.));
#346=DIRECTION('',(0.,0.,1.));
#347=DIRECTION('',(0.,-1.,0.));
#348=CARTESIAN_POINT('',(0.,0.,0.));
#349=CARTESIAN_POINT('',(0.,-4.8,18.));
#350=CARTESIAN_POINT('',(0.,10.2,18.));
#351=CARTESIAN_POINT('',(0.,10.2,19.8));
#352=CARTESIAN_POINT('',(0.,10.2,18.));
#353=CARTESIAN_POINT('',(0.,-4.8,18.));
#354=CARTESIAN_POINT('',(0.,-4.8,18.));
#355=CARTESIAN_POINT('',(0.,-4.8,18.));
#356=CARTESIAN_POINT('',(0.,-4.8,19.8));
#357=CARTESIAN_POINT('',(0.,-4.8,19.8));
#358=CARTESIAN_POINT('',(3.,-4.8,15.));
#359=CARTESIAN_POINT('',(3.,10.2,15.));
#360=CARTESIAN_POINT('',(3.,10.2,15.));
#361=CARTESIAN_POINT('',(3.,-4.8,15.));
#362=CARTESIAN_POINT('',(3.,-4.8,15.));
#363=CARTESIAN_POINT('',(3.,-4.8,15.));
#364=CARTESIAN_POINT('',(10.4,-4.8,15.));
#365=CARTESIAN_POINT('',(6.7,2.7,15.));
#366=CARTESIAN_POINT('',(8.7,2.7,15.));
#367=CARTESIAN_POINT('',(10.4,10.2,15.));
#368=CARTESIAN_POINT('',(10.4,10.2,15.));
#369=CARTESIAN_POINT('',(10.4,-4.8,15.));
#370=CARTESIAN_POINT('',(10.4,-4.8,15.));
#371=CARTESIAN_POINT('',(10.4,-4.8,15.));
#372=CARTESIAN_POINT('',(13.4,-4.8,18.));
#373=CARTESIAN_POINT('',(13.4,10.2,18.));
#374=CARTESIAN_POINT('',(13.4,10.2,18.));
#375=CARTESIAN_POINT('',(13.4,-4.8,18.));
#376=CARTESIAN_POINT('',(13.4,-4.8,18.));
#377=CARTESIAN_POINT('',(13.4,-4.8,18.));
#378=CARTESIAN_POINT('',(13.4,-4.8,19.8));
#379=CARTESIAN_POINT('',(13.4,10.2,19.8));
#380=CARTESIAN_POINT('',(13.4,10.2,19.8));
#381=CARTESIAN_POINT('',(13.4,-4.8,19.8));
#382=CARTESIAN_POINT('',(13.4,-4.8,19.8));
#383=CARTESIAN_POINT('',(13.4,-4.8,19.8));
#384=CARTESIAN_POINT('',(10.7,-4.8,19.8));
#385=CARTESIAN_POINT('',(10.7,10.2,19.8));
#386=CARTESIAN_POINT('',(10.7,10.2,19.8));
#387=CARTESIAN_POINT('',(10.7,-4.8,19.8));
#388=CARTESIAN_POINT('',(10.7,-4.8,19.8));
#389=CARTESIAN_POINT('',(10.7,-4.8,19.8));
#390=CARTESIAN_POINT('',(10.7,-4.8,21.2));
#391=CARTESIAN_POINT('',(10.7,10.2,21.2));
#392=CARTESIAN_POINT('',(10.7,10.2,21.2));
#393=CARTESIAN_POINT('',(10.7,-4.8,21.2));
#394=CARTESIAN_POINT('',(10.7,-4.8,21.2));
#395=CARTESIAN_POINT('',(10.7,-4.8,21.2));
#396=CARTESIAN_POINT('',(2.7,-4.8,21.2));
#397=CARTESIAN_POINT('',(6.7,2.7,21.2));
#398=CARTESIAN_POINT('',(4.7,2.7,21.2));
#399=CARTESIAN_POINT('',(2.7,10.2,21.2));
#400=CARTESIAN_POINT('',(2.7,10.2,21.2));
#401=CARTESIAN_POINT('',(2.7,-4.8,21.2));
#402=CARTESIAN_POINT('',(2.7,-4.8,21.2));
#403=CARTESIAN_POINT('',(2.7,-4.8,21.2));
#404=CARTESIAN_POINT('',(2.7,-4.8,19.8));
#405=CARTESIAN_POINT('',(2.7,10.2,19.8));
#406=CARTESIAN_POINT('',(2.7,10.2,19.8));
#407=CARTESIAN_POINT('',(2.7,-4.8,19.8));
#408=CARTESIAN_POINT('',(2.7,-4.8,19.8));
#409=CARTESIAN_POINT('',(2.7,-4.8,19.8));
#410=CARTESIAN_POINT('',(0.,-4.8,19.8));
#411=CARTESIAN_POINT('',(0.,10.2,19.8));
#412=CARTESIAN_POINT('',(0.,-4.8,19.8));
#413=CARTESIAN_POINT('',(0.,-4.8,19.8));
#414=CARTESIAN_POINT('',(0.,10.2,19.8));
#415=CARTESIAN_POINT('',(6.7,2.7,21.2));
#416=MECHANICAL_DESIGN_GEOMETRIC_PRESENTATION_REPRESENTATION('',(#259),
#417);
#417=(
GEOMETRIC_REPRESENTATION_CONTEXT(3)
GLOBAL_UNCERTAINTY_ASSIGNED_CONTEXT((#418))
GLOBAL_UNIT_ASSIGNED_CONTEXT((#421,#420,#419))
REPRESENTATION_CONTEXT('BPN08M4','TOP_LEVEL_ASSEMBLY_PART')
);
#418=UNCERTAINTY_MEASURE_WITH_UNIT(LENGTH_MEASURE(0.005),#421,
'DISTANCE_ACCURACY_VALUE','Maximum Tolerance applied to model');
#419=(
NAMED_UNIT(*)
SI_UNIT($,.STERADIAN.)
SOLID_ANGLE_UNIT()
);
#420=(
NAMED_UNIT(*)
PLANE_ANGLE_UNIT()
SI_UNIT($,.RADIAN.)
);
#421=(
LENGTH_UNIT()
NAMED_UNIT(*)
SI_UNIT(.MILLI.,.METRE.)
);
#422=PRODUCT_DEFINITION_SHAPE('','',#423);
#423=PRODUCT_DEFINITION('','',#425,#424);
#424=PRODUCT_DEFINITION_CONTEXT('',#431,'design');
#425=PRODUCT_DEFINITION_FORMATION_WITH_SPECIFIED_SOURCE('','',#427,
 .NOT_KNOWN.);
#426=PRODUCT_RELATED_PRODUCT_CATEGORY('','',(#427));
#427=PRODUCT('BPN08M4','BPN08M4','BPN08M4',(#429));
#428=PRODUCT_CATEGORY('','');
#429=PRODUCT_CONTEXT('',#431,'mechanical');
#430=APPLICATION_PROTOCOL_DEFINITION('international standard',
'automotive_design',2010,#431);
#431=APPLICATION_CONTEXT(
'core data for automotive mechanical design processes');
ENDSEC;
END-ISO-10303-21;
