ISO-10303-21;
HEADER;
/* Generated by software containing ST-Developer
 * from STEP Tools, Inc. (www.steptools.com) 
 */
/* OPTION: strings as raw bytes, not using required /X/ escapes */

FILE_DESCRIPTION(
/* description */ ('Unknown'),
/* implementation_level */ '2;1');

FILE_NAME(
/* name */ 'BTN08M4',
/* time_stamp */ '2018-08-09T14:21:34+01:00',
/* author */ ('Unknown'),
/* organization */ ('Unknown'),
/* preprocessor_version */ 'ST-DEVELOPER v16.7',
/* originating_system */ 'DEX',
/* authorisation */ $);

FILE_SCHEMA (('AUTOMOTIVE_DESIGN {1 0 10303 214 3 1 1}'));
ENDSEC;

DATA;
#10=PROPERTY_DEFINITION_REPRESENTATION(#14,#12);
#11=PROPERTY_DEFINITION_REPRESENTATION(#15,#13);
#12=REPRESENTATION('',(#16),#1269);
#13=REPRESENTATION('',(#17),#1269);
#14=PROPERTY_DEFINITION('pmi validation property','',#1274);
#15=PROPERTY_DEFINITION('pmi validation property','',#1274);
#16=VALUE_REPRESENTATION_ITEM('number of annotations',COUNT_MEASURE(0.));
#17=VALUE_REPRESENTATION_ITEM('number of views',COUNT_MEASURE(0.));
#18=SHAPE_REPRESENTATION_RELATIONSHIP('','',#761,#19);
#19=ADVANCED_BREP_SHAPE_REPRESENTATION('',(#759),#1269);
#20=CONICAL_SURFACE('',#822,4.,0.785398163397452);
#21=CONICAL_SURFACE('',#829,3.6,0.785398163397444);
#22=B_SPLINE_CURVE_WITH_KNOTS('',3,(#1242,#1243,#1244,#1245),
 .UNSPECIFIED.,.F.,.F.,(4,4),(0.,0.0024699635334028),.UNSPECIFIED.);
#23=B_SPLINE_CURVE_WITH_KNOTS('',3,(#1261,#1262,#1263,#1264),
 .UNSPECIFIED.,.F.,.F.,(4,4),(0.,0.00246771997999401),.UNSPECIFIED.);
#24=CIRCLE('',#767,4.);
#25=CIRCLE('',#768,4.);
#26=CIRCLE('',#769,4.);
#27=CIRCLE('',#771,4.);
#28=CIRCLE('',#775,2.);
#29=CIRCLE('',#776,4.);
#30=CIRCLE('',#784,4.);
#31=CIRCLE('',#785,4.);
#32=CIRCLE('',#788,4.);
#33=CIRCLE('',#793,4.);
#34=CIRCLE('',#796,4.);
#35=CIRCLE('',#797,4.);
#36=CIRCLE('',#800,2.);
#37=CIRCLE('',#802,4.);
#38=CIRCLE('',#803,4.);
#39=CIRCLE('',#804,4.);
#40=ELLIPSE('',#765,5.6568542494924,4.);
#41=ELLIPSE('',#766,5.65685424949239,4.);
#42=ELLIPSE('',#770,5.65685424949238,4.);
#43=ELLIPSE('',#778,5.65685424949238,4.);
#44=ELLIPSE('',#782,5.65685424949239,4.);
#45=ELLIPSE('',#783,5.65685424949235,4.);
#46=ELLIPSE('',#786,5.65685424949236,4.);
#47=ELLIPSE('',#787,5.65685424949236,4.);
#48=ELLIPSE('',#791,5.6568542494924,4.);
#49=ELLIPSE('',#792,5.6568542494924,4.);
#50=ELLIPSE('',#794,5.65685424949239,4.);
#51=ELLIPSE('',#795,5.6568542494924,4.);
#52=ELLIPSE('',#805,5.65685424949235,4.);
#53=ELLIPSE('',#806,5.65685424949239,4.);
#54=CYLINDRICAL_SURFACE('',#764,4.);
#55=CYLINDRICAL_SURFACE('',#781,4.);
#56=CYLINDRICAL_SURFACE('',#790,4.);
#57=CYLINDRICAL_SURFACE('',#801,4.);
#58=CYLINDRICAL_SURFACE('',#813,2.);
#59=ORIENTED_EDGE('',*,*,#271,.T.);
#60=ORIENTED_EDGE('',*,*,#272,.T.);
#61=ORIENTED_EDGE('',*,*,#273,.F.);
#62=ORIENTED_EDGE('',*,*,#274,.T.);
#63=ORIENTED_EDGE('',*,*,#275,.T.);
#64=ORIENTED_EDGE('',*,*,#276,.T.);
#65=ORIENTED_EDGE('',*,*,#277,.T.);
#66=ORIENTED_EDGE('',*,*,#278,.T.);
#67=ORIENTED_EDGE('',*,*,#279,.F.);
#68=ORIENTED_EDGE('',*,*,#280,.T.);
#69=ORIENTED_EDGE('',*,*,#281,.T.);
#70=ORIENTED_EDGE('',*,*,#282,.T.);
#71=ORIENTED_EDGE('',*,*,#283,.T.);
#72=ORIENTED_EDGE('',*,*,#284,.T.);
#73=ORIENTED_EDGE('',*,*,#285,.F.);
#74=ORIENTED_EDGE('',*,*,#286,.F.);
#75=ORIENTED_EDGE('',*,*,#287,.F.);
#76=ORIENTED_EDGE('',*,*,#288,.T.);
#77=ORIENTED_EDGE('',*,*,#289,.F.);
#78=ORIENTED_EDGE('',*,*,#290,.T.);
#79=ORIENTED_EDGE('',*,*,#291,.T.);
#80=ORIENTED_EDGE('',*,*,#292,.T.);
#81=ORIENTED_EDGE('',*,*,#293,.T.);
#82=ORIENTED_EDGE('',*,*,#294,.T.);
#83=ORIENTED_EDGE('',*,*,#295,.T.);
#84=ORIENTED_EDGE('',*,*,#287,.T.);
#85=ORIENTED_EDGE('',*,*,#296,.F.);
#86=ORIENTED_EDGE('',*,*,#297,.T.);
#87=ORIENTED_EDGE('',*,*,#298,.T.);
#88=ORIENTED_EDGE('',*,*,#276,.F.);
#89=ORIENTED_EDGE('',*,*,#299,.F.);
#90=ORIENTED_EDGE('',*,*,#300,.F.);
#91=ORIENTED_EDGE('',*,*,#284,.F.);
#92=ORIENTED_EDGE('',*,*,#301,.T.);
#93=ORIENTED_EDGE('',*,*,#302,.F.);
#94=ORIENTED_EDGE('',*,*,#303,.F.);
#95=ORIENTED_EDGE('',*,*,#304,.T.);
#96=ORIENTED_EDGE('',*,*,#305,.T.);
#97=ORIENTED_EDGE('',*,*,#285,.T.);
#98=ORIENTED_EDGE('',*,*,#300,.T.);
#99=ORIENTED_EDGE('',*,*,#306,.F.);
#100=ORIENTED_EDGE('',*,*,#307,.F.);
#101=ORIENTED_EDGE('',*,*,#308,.F.);
#102=ORIENTED_EDGE('',*,*,#309,.F.);
#103=ORIENTED_EDGE('',*,*,#306,.T.);
#104=ORIENTED_EDGE('',*,*,#299,.T.);
#105=ORIENTED_EDGE('',*,*,#275,.F.);
#106=ORIENTED_EDGE('',*,*,#310,.T.);
#107=ORIENTED_EDGE('',*,*,#311,.T.);
#108=ORIENTED_EDGE('',*,*,#289,.T.);
#109=ORIENTED_EDGE('',*,*,#312,.T.);
#110=ORIENTED_EDGE('',*,*,#308,.T.);
#111=ORIENTED_EDGE('',*,*,#313,.F.);
#112=ORIENTED_EDGE('',*,*,#314,.T.);
#113=ORIENTED_EDGE('',*,*,#315,.F.);
#114=ORIENTED_EDGE('',*,*,#316,.T.);
#115=ORIENTED_EDGE('',*,*,#296,.T.);
#116=ORIENTED_EDGE('',*,*,#286,.T.);
#117=ORIENTED_EDGE('',*,*,#305,.F.);
#118=ORIENTED_EDGE('',*,*,#312,.F.);
#119=ORIENTED_EDGE('',*,*,#317,.T.);
#120=ORIENTED_EDGE('',*,*,#318,.T.);
#121=ORIENTED_EDGE('',*,*,#319,.F.);
#122=ORIENTED_EDGE('',*,*,#320,.F.);
#123=ORIENTED_EDGE('',*,*,#321,.T.);
#124=ORIENTED_EDGE('',*,*,#315,.T.);
#125=ORIENTED_EDGE('',*,*,#322,.T.);
#126=ORIENTED_EDGE('',*,*,#323,.T.);
#127=ORIENTED_EDGE('',*,*,#324,.F.);
#128=ORIENTED_EDGE('',*,*,#325,.F.);
#129=ORIENTED_EDGE('',*,*,#326,.T.);
#130=ORIENTED_EDGE('',*,*,#327,.T.);
#131=ORIENTED_EDGE('',*,*,#297,.F.);
#132=ORIENTED_EDGE('',*,*,#328,.T.);
#133=ORIENTED_EDGE('',*,*,#320,.T.);
#134=ORIENTED_EDGE('',*,*,#329,.F.);
#135=ORIENTED_EDGE('',*,*,#330,.T.);
#136=ORIENTED_EDGE('',*,*,#331,.T.);
#137=ORIENTED_EDGE('',*,*,#302,.T.);
#138=ORIENTED_EDGE('',*,*,#332,.T.);
#139=ORIENTED_EDGE('',*,*,#333,.T.);
#140=ORIENTED_EDGE('',*,*,#334,.F.);
#141=ORIENTED_EDGE('',*,*,#335,.T.);
#142=ORIENTED_EDGE('',*,*,#336,.T.);
#143=ORIENTED_EDGE('',*,*,#337,.F.);
#144=ORIENTED_EDGE('',*,*,#338,.F.);
#145=ORIENTED_EDGE('',*,*,#339,.F.);
#146=ORIENTED_EDGE('',*,*,#338,.T.);
#147=ORIENTED_EDGE('',*,*,#340,.F.);
#148=ORIENTED_EDGE('',*,*,#341,.T.);
#149=ORIENTED_EDGE('',*,*,#342,.T.);
#150=ORIENTED_EDGE('',*,*,#343,.F.);
#151=ORIENTED_EDGE('',*,*,#344,.T.);
#152=ORIENTED_EDGE('',*,*,#345,.T.);
#153=ORIENTED_EDGE('',*,*,#310,.F.);
#154=ORIENTED_EDGE('',*,*,#346,.F.);
#155=ORIENTED_EDGE('',*,*,#347,.F.);
#156=ORIENTED_EDGE('',*,*,#321,.F.);
#157=ORIENTED_EDGE('',*,*,#328,.F.);
#158=ORIENTED_EDGE('',*,*,#303,.T.);
#159=ORIENTED_EDGE('',*,*,#339,.T.);
#160=ORIENTED_EDGE('',*,*,#346,.T.);
#161=ORIENTED_EDGE('',*,*,#316,.F.);
#162=ORIENTED_EDGE('',*,*,#348,.T.);
#163=ORIENTED_EDGE('',*,*,#349,.T.);
#164=ORIENTED_EDGE('',*,*,#313,.T.);
#165=ORIENTED_EDGE('',*,*,#307,.T.);
#166=ORIENTED_EDGE('',*,*,#309,.T.);
#167=ORIENTED_EDGE('',*,*,#274,.F.);
#168=ORIENTED_EDGE('',*,*,#350,.T.);
#169=ORIENTED_EDGE('',*,*,#351,.T.);
#170=ORIENTED_EDGE('',*,*,#352,.T.);
#171=ORIENTED_EDGE('',*,*,#353,.T.);
#172=ORIENTED_EDGE('',*,*,#340,.T.);
#173=ORIENTED_EDGE('',*,*,#337,.T.);
#174=ORIENTED_EDGE('',*,*,#354,.F.);
#175=ORIENTED_EDGE('',*,*,#288,.F.);
#176=ORIENTED_EDGE('',*,*,#295,.F.);
#177=ORIENTED_EDGE('',*,*,#355,.T.);
#178=ORIENTED_EDGE('',*,*,#343,.T.);
#179=ORIENTED_EDGE('',*,*,#356,.F.);
#180=ORIENTED_EDGE('',*,*,#292,.F.);
#181=ORIENTED_EDGE('',*,*,#357,.F.);
#182=ORIENTED_EDGE('',*,*,#334,.T.);
#183=ORIENTED_EDGE('',*,*,#358,.F.);
#184=ORIENTED_EDGE('',*,*,#282,.F.);
#185=ORIENTED_EDGE('',*,*,#279,.T.);
#186=ORIENTED_EDGE('',*,*,#359,.F.);
#187=ORIENTED_EDGE('',*,*,#325,.T.);
#188=ORIENTED_EDGE('',*,*,#360,.T.);
#189=ORIENTED_EDGE('',*,*,#361,.F.);
#190=ORIENTED_EDGE('',*,*,#324,.T.);
#191=ORIENTED_EDGE('',*,*,#362,.T.);
#192=ORIENTED_EDGE('',*,*,#348,.F.);
#193=ORIENTED_EDGE('',*,*,#273,.T.);
#194=ORIENTED_EDGE('',*,*,#363,.F.);
#195=ORIENTED_EDGE('',*,*,#329,.T.);
#196=ORIENTED_EDGE('',*,*,#319,.T.);
#197=ORIENTED_EDGE('',*,*,#364,.T.);
#198=ORIENTED_EDGE('',*,*,#350,.F.);
#199=ORIENTED_EDGE('',*,*,#304,.F.);
#200=ORIENTED_EDGE('',*,*,#347,.T.);
#201=ORIENTED_EDGE('',*,*,#365,.F.);
#202=ORIENTED_EDGE('',*,*,#344,.F.);
#203=ORIENTED_EDGE('',*,*,#355,.F.);
#204=ORIENTED_EDGE('',*,*,#291,.F.);
#205=ORIENTED_EDGE('',*,*,#345,.F.);
#206=ORIENTED_EDGE('',*,*,#365,.T.);
#207=ORIENTED_EDGE('',*,*,#290,.F.);
#208=ORIENTED_EDGE('',*,*,#311,.F.);
#209=ORIENTED_EDGE('',*,*,#353,.F.);
#210=ORIENTED_EDGE('',*,*,#294,.F.);
#211=ORIENTED_EDGE('',*,*,#366,.F.);
#212=ORIENTED_EDGE('',*,*,#341,.F.);
#213=ORIENTED_EDGE('',*,*,#293,.F.);
#214=ORIENTED_EDGE('',*,*,#356,.T.);
#215=ORIENTED_EDGE('',*,*,#342,.F.);
#216=ORIENTED_EDGE('',*,*,#366,.T.);
#217=ORIENTED_EDGE('',*,*,#354,.T.);
#218=ORIENTED_EDGE('',*,*,#336,.F.);
#219=ORIENTED_EDGE('',*,*,#367,.F.);
#220=ORIENTED_EDGE('',*,*,#280,.F.);
#221=ORIENTED_EDGE('',*,*,#335,.F.);
#222=ORIENTED_EDGE('',*,*,#357,.T.);
#223=ORIENTED_EDGE('',*,*,#281,.F.);
#224=ORIENTED_EDGE('',*,*,#367,.T.);
#225=ORIENTED_EDGE('',*,*,#362,.F.);
#226=ORIENTED_EDGE('',*,*,#323,.F.);
#227=ORIENTED_EDGE('',*,*,#368,.F.);
#228=ORIENTED_EDGE('',*,*,#369,.F.);
#229=ORIENTED_EDGE('',*,*,#322,.F.);
#230=ORIENTED_EDGE('',*,*,#314,.F.);
#231=ORIENTED_EDGE('',*,*,#370,.F.);
#232=ORIENTED_EDGE('',*,*,#368,.T.);
#233=ORIENTED_EDGE('',*,*,#349,.F.);
#234=ORIENTED_EDGE('',*,*,#369,.T.);
#235=ORIENTED_EDGE('',*,*,#370,.T.);
#236=ORIENTED_EDGE('',*,*,#364,.F.);
#237=ORIENTED_EDGE('',*,*,#318,.F.);
#238=ORIENTED_EDGE('',*,*,#371,.F.);
#239=ORIENTED_EDGE('',*,*,#351,.F.);
#240=ORIENTED_EDGE('',*,*,#317,.F.);
#241=ORIENTED_EDGE('',*,*,#361,.T.);
#242=ORIENTED_EDGE('',*,*,#352,.F.);
#243=ORIENTED_EDGE('',*,*,#371,.T.);
#244=ORIENTED_EDGE('',*,*,#360,.F.);
#245=ORIENTED_EDGE('',*,*,#331,.F.);
#246=ORIENTED_EDGE('',*,*,#372,.F.);
#247=ORIENTED_EDGE('',*,*,#271,.F.);
#248=ORIENTED_EDGE('',*,*,#330,.F.);
#249=ORIENTED_EDGE('',*,*,#363,.T.);
#250=ORIENTED_EDGE('',*,*,#272,.F.);
#251=ORIENTED_EDGE('',*,*,#372,.T.);
#252=ORIENTED_EDGE('',*,*,#359,.T.);
#253=ORIENTED_EDGE('',*,*,#278,.F.);
#254=ORIENTED_EDGE('',*,*,#373,.F.);
#255=ORIENTED_EDGE('',*,*,#326,.F.);
#256=ORIENTED_EDGE('',*,*,#277,.F.);
#257=ORIENTED_EDGE('',*,*,#298,.F.);
#258=ORIENTED_EDGE('',*,*,#327,.F.);
#259=ORIENTED_EDGE('',*,*,#373,.T.);
#260=ORIENTED_EDGE('',*,*,#374,.F.);
#261=ORIENTED_EDGE('',*,*,#283,.F.);
#262=ORIENTED_EDGE('',*,*,#375,.F.);
#263=ORIENTED_EDGE('',*,*,#301,.F.);
#264=ORIENTED_EDGE('',*,*,#374,.T.);
#265=ORIENTED_EDGE('',*,*,#376,.F.);
#266=ORIENTED_EDGE('',*,*,#332,.F.);
#267=ORIENTED_EDGE('',*,*,#375,.T.);
#268=ORIENTED_EDGE('',*,*,#358,.T.);
#269=ORIENTED_EDGE('',*,*,#333,.F.);
#270=ORIENTED_EDGE('',*,*,#376,.T.);
#271=EDGE_CURVE('',#377,#378,#447,.F.);
#272=EDGE_CURVE('',#378,#379,#448,.T.);
#273=EDGE_CURVE('',#380,#379,#449,.T.);
#274=EDGE_CURVE('',#380,#381,#450,.T.);
#275=EDGE_CURVE('',#381,#382,#451,.T.);
#276=EDGE_CURVE('',#382,#383,#452,.T.);
#277=EDGE_CURVE('',#383,#384,#453,.T.);
#278=EDGE_CURVE('',#384,#385,#454,.T.);
#279=EDGE_CURVE('',#377,#385,#455,.T.);
#280=EDGE_CURVE('',#386,#387,#40,.F.);
#281=EDGE_CURVE('',#387,#388,#41,.F.);
#282=EDGE_CURVE('',#388,#389,#24,.T.);
#283=EDGE_CURVE('',#389,#390,#25,.T.);
#284=EDGE_CURVE('',#390,#391,#456,.T.);
#285=EDGE_CURVE('',#392,#391,#26,.F.);
#286=EDGE_CURVE('',#393,#392,#42,.F.);
#287=EDGE_CURVE('',#394,#393,#457,.T.);
#288=EDGE_CURVE('',#394,#386,#27,.T.);
#289=EDGE_CURVE('',#395,#396,#458,.T.);
#290=EDGE_CURVE('',#395,#397,#459,.F.);
#291=EDGE_CURVE('',#397,#398,#460,.F.);
#292=EDGE_CURVE('',#398,#399,#461,.T.);
#293=EDGE_CURVE('',#399,#400,#462,.T.);
#294=EDGE_CURVE('',#400,#401,#463,.F.);
#295=EDGE_CURVE('',#401,#394,#464,.T.);
#296=EDGE_CURVE('',#396,#393,#465,.T.);
#297=EDGE_CURVE('',#402,#403,#466,.T.);
#298=EDGE_CURVE('',#403,#383,#467,.T.);
#299=EDGE_CURVE('',#404,#382,#468,.T.);
#300=EDGE_CURVE('',#391,#404,#469,.T.);
#301=EDGE_CURVE('',#390,#405,#470,.T.);
#302=EDGE_CURVE('',#406,#405,#471,.T.);
#303=EDGE_CURVE('',#402,#406,#472,.T.);
#304=EDGE_CURVE('',#407,#407,#28,.T.);
#305=EDGE_CURVE('',#408,#392,#473,.T.);
#306=EDGE_CURVE('',#409,#404,#474,.T.);
#307=EDGE_CURVE('',#410,#409,#29,.T.);
#308=EDGE_CURVE('',#408,#410,#475,.T.);
#309=EDGE_CURVE('',#409,#381,#43,.T.);
#310=EDGE_CURVE('',#411,#412,#476,.T.);
#311=EDGE_CURVE('',#412,#395,#477,.T.);
#312=EDGE_CURVE('',#396,#408,#478,.T.);
#313=EDGE_CURVE('',#413,#410,#479,.T.);
#314=EDGE_CURVE('',#413,#414,#480,.T.);
#315=EDGE_CURVE('',#415,#414,#481,.T.);
#316=EDGE_CURVE('',#415,#411,#482,.T.);
#317=EDGE_CURVE('',#416,#417,#44,.T.);
#318=EDGE_CURVE('',#417,#418,#45,.F.);
#319=EDGE_CURVE('',#419,#418,#30,.F.);
#320=EDGE_CURVE('',#420,#419,#483,.T.);
#321=EDGE_CURVE('',#420,#415,#31,.F.);
#322=EDGE_CURVE('',#414,#421,#46,.F.);
#323=EDGE_CURVE('',#421,#422,#47,.F.);
#324=EDGE_CURVE('',#416,#422,#32,.F.);
#325=EDGE_CURVE('',#423,#424,#484,.T.);
#326=EDGE_CURVE('',#423,#425,#485,.T.);
#327=EDGE_CURVE('',#425,#403,#486,.T.);
#328=EDGE_CURVE('',#402,#420,#487,.T.);
#329=EDGE_CURVE('',#426,#419,#488,.T.);
#330=EDGE_CURVE('',#426,#427,#489,.T.);
#331=EDGE_CURVE('',#427,#424,#490,.F.);
#332=EDGE_CURVE('',#405,#428,#48,.T.);
#333=EDGE_CURVE('',#428,#429,#49,.T.);
#334=EDGE_CURVE('',#430,#429,#33,.T.);
#335=EDGE_CURVE('',#430,#431,#50,.T.);
#336=EDGE_CURVE('',#431,#432,#51,.T.);
#337=EDGE_CURVE('',#433,#432,#34,.T.);
#338=EDGE_CURVE('',#434,#433,#491,.T.);
#339=EDGE_CURVE('',#406,#434,#35,.T.);
#340=EDGE_CURVE('',#435,#433,#492,.T.);
#341=EDGE_CURVE('',#435,#436,#493,.F.);
#342=EDGE_CURVE('',#436,#437,#494,.T.);
#343=EDGE_CURVE('',#438,#437,#495,.T.);
#344=EDGE_CURVE('',#438,#439,#496,.F.);
#345=EDGE_CURVE('',#439,#412,#497,.F.);
#346=EDGE_CURVE('',#434,#411,#498,.T.);
#347=EDGE_CURVE('',#440,#440,#36,.T.);
#348=EDGE_CURVE('',#441,#442,#37,.F.);
#349=EDGE_CURVE('',#442,#413,#38,.T.);
#350=EDGE_CURVE('',#380,#443,#39,.F.);
#351=EDGE_CURVE('',#443,#444,#52,.T.);
#352=EDGE_CURVE('',#444,#441,#53,.F.);
#353=EDGE_CURVE('',#401,#435,#499,.T.);
#354=EDGE_CURVE('',#386,#432,#500,.T.);
#355=EDGE_CURVE('',#398,#438,#501,.T.);
#356=EDGE_CURVE('',#399,#437,#502,.T.);
#357=EDGE_CURVE('',#430,#388,#503,.T.);
#358=EDGE_CURVE('',#389,#429,#504,.T.);
#359=EDGE_CURVE('',#423,#385,#505,.T.);
#360=EDGE_CURVE('',#424,#377,#506,.T.);
#361=EDGE_CURVE('',#416,#441,#507,.T.);
#362=EDGE_CURVE('',#422,#442,#508,.T.);
#363=EDGE_CURVE('',#426,#379,#509,.T.);
#364=EDGE_CURVE('',#418,#443,#510,.T.);
#365=EDGE_CURVE('',#439,#397,#511,.T.);
#366=EDGE_CURVE('',#436,#400,#512,.T.);
#367=EDGE_CURVE('',#387,#431,#513,.T.);
#368=EDGE_CURVE('',#445,#421,#514,.T.);
#369=EDGE_CURVE('',#442,#445,#22,.F.);
#370=EDGE_CURVE('',#445,#413,#515,.T.);
#371=EDGE_CURVE('',#444,#417,#516,.T.);
#372=EDGE_CURVE('',#378,#427,#517,.T.);
#373=EDGE_CURVE('',#425,#384,#518,.T.);
#374=EDGE_CURVE('',#390,#446,#519,.T.);
#375=EDGE_CURVE('',#446,#389,#23,.F.);
#376=EDGE_CURVE('',#428,#446,#520,.T.);
#377=VERTEX_POINT('',#1049);
#378=VERTEX_POINT('',#1050);
#379=VERTEX_POINT('',#1052);
#380=VERTEX_POINT('',#1054);
#381=VERTEX_POINT('',#1056);
#382=VERTEX_POINT('',#1058);
#383=VERTEX_POINT('',#1060);
#384=VERTEX_POINT('',#1062);
#385=VERTEX_POINT('',#1064);
#386=VERTEX_POINT('',#1068);
#387=VERTEX_POINT('',#1069);
#388=VERTEX_POINT('',#1071);
#389=VERTEX_POINT('',#1073);
#390=VERTEX_POINT('',#1075);
#391=VERTEX_POINT('',#1077);
#392=VERTEX_POINT('',#1079);
#393=VERTEX_POINT('',#1081);
#394=VERTEX_POINT('',#1083);
#395=VERTEX_POINT('',#1087);
#396=VERTEX_POINT('',#1088);
#397=VERTEX_POINT('',#1090);
#398=VERTEX_POINT('',#1092);
#399=VERTEX_POINT('',#1094);
#400=VERTEX_POINT('',#1096);
#401=VERTEX_POINT('',#1098);
#402=VERTEX_POINT('',#1103);
#403=VERTEX_POINT('',#1104);
#404=VERTEX_POINT('',#1107);
#405=VERTEX_POINT('',#1110);
#406=VERTEX_POINT('',#1112);
#407=VERTEX_POINT('',#1116);
#408=VERTEX_POINT('',#1118);
#409=VERTEX_POINT('',#1120);
#410=VERTEX_POINT('',#1122);
#411=VERTEX_POINT('',#1128);
#412=VERTEX_POINT('',#1129);
#413=VERTEX_POINT('',#1133);
#414=VERTEX_POINT('',#1135);
#415=VERTEX_POINT('',#1137);
#416=VERTEX_POINT('',#1142);
#417=VERTEX_POINT('',#1143);
#418=VERTEX_POINT('',#1145);
#419=VERTEX_POINT('',#1147);
#420=VERTEX_POINT('',#1149);
#421=VERTEX_POINT('',#1152);
#422=VERTEX_POINT('',#1154);
#423=VERTEX_POINT('',#1158);
#424=VERTEX_POINT('',#1159);
#425=VERTEX_POINT('',#1161);
#426=VERTEX_POINT('',#1165);
#427=VERTEX_POINT('',#1167);
#428=VERTEX_POINT('',#1171);
#429=VERTEX_POINT('',#1173);
#430=VERTEX_POINT('',#1175);
#431=VERTEX_POINT('',#1177);
#432=VERTEX_POINT('',#1179);
#433=VERTEX_POINT('',#1181);
#434=VERTEX_POINT('',#1183);
#435=VERTEX_POINT('',#1187);
#436=VERTEX_POINT('',#1189);
#437=VERTEX_POINT('',#1191);
#438=VERTEX_POINT('',#1193);
#439=VERTEX_POINT('',#1195);
#440=VERTEX_POINT('',#1200);
#441=VERTEX_POINT('',#1203);
#442=VERTEX_POINT('',#1204);
#443=VERTEX_POINT('',#1207);
#444=VERTEX_POINT('',#1209);
#445=VERTEX_POINT('',#1241);
#446=VERTEX_POINT('',#1260);
#447=LINE('',#1048,#521);
#448=LINE('',#1051,#522);
#449=LINE('',#1053,#523);
#450=LINE('',#1055,#524);
#451=LINE('',#1057,#525);
#452=LINE('',#1059,#526);
#453=LINE('',#1061,#527);
#454=LINE('',#1063,#528);
#455=LINE('',#1065,#529);
#456=LINE('',#1076,#530);
#457=LINE('',#1082,#531);
#458=LINE('',#1086,#532);
#459=LINE('',#1089,#533);
#460=LINE('',#1091,#534);
#461=LINE('',#1093,#535);
#462=LINE('',#1095,#536);
#463=LINE('',#1097,#537);
#464=LINE('',#1099,#538);
#465=LINE('',#1100,#539);
#466=LINE('',#1102,#540);
#467=LINE('',#1105,#541);
#468=LINE('',#1106,#542);
#469=LINE('',#1108,#543);
#470=LINE('',#1109,#544);
#471=LINE('',#1111,#545);
#472=LINE('',#1113,#546);
#473=LINE('',#1117,#547);
#474=LINE('',#1119,#548);
#475=LINE('',#1123,#549);
#476=LINE('',#1127,#550);
#477=LINE('',#1130,#551);
#478=LINE('',#1131,#552);
#479=LINE('',#1132,#553);
#480=LINE('',#1134,#554);
#481=LINE('',#1136,#555);
#482=LINE('',#1138,#556);
#483=LINE('',#1148,#557);
#484=LINE('',#1157,#558);
#485=LINE('',#1160,#559);
#486=LINE('',#1162,#560);
#487=LINE('',#1163,#561);
#488=LINE('',#1164,#562);
#489=LINE('',#1166,#563);
#490=LINE('',#1168,#564);
#491=LINE('',#1182,#565);
#492=LINE('',#1186,#566);
#493=LINE('',#1188,#567);
#494=LINE('',#1190,#568);
#495=LINE('',#1192,#569);
#496=LINE('',#1194,#570);
#497=LINE('',#1196,#571);
#498=LINE('',#1197,#572);
#499=LINE('',#1212,#573);
#500=LINE('',#1213,#574);
#501=LINE('',#1215,#575);
#502=LINE('',#1216,#576);
#503=LINE('',#1218,#577);
#504=LINE('',#1219,#578);
#505=LINE('',#1221,#579);
#506=LINE('',#1222,#580);
#507=LINE('',#1224,#581);
#508=LINE('',#1225,#582);
#509=LINE('',#1227,#583);
#510=LINE('',#1228,#584);
#511=LINE('',#1231,#585);
#512=LINE('',#1234,#586);
#513=LINE('',#1237,#587);
#514=LINE('',#1240,#588);
#515=LINE('',#1247,#589);
#516=LINE('',#1250,#590);
#517=LINE('',#1253,#591);
#518=LINE('',#1256,#592);
#519=LINE('',#1259,#593);
#520=LINE('',#1266,#594);
#521=VECTOR('',#836,1000.);
#522=VECTOR('',#837,1000.);
#523=VECTOR('',#838,1000.);
#524=VECTOR('',#839,1000.);
#525=VECTOR('',#840,1000.);
#526=VECTOR('',#841,1000.);
#527=VECTOR('',#842,1000.);
#528=VECTOR('',#843,1000.);
#529=VECTOR('',#844,1000.);
#530=VECTOR('',#855,1000.);
#531=VECTOR('',#860,1000.);
#532=VECTOR('',#865,1000.);
#533=VECTOR('',#866,1000.);
#534=VECTOR('',#867,1000.);
#535=VECTOR('',#868,1000.);
#536=VECTOR('',#869,1000.);
#537=VECTOR('',#870,1000.);
#538=VECTOR('',#871,1000.);
#539=VECTOR('',#872,1000.);
#540=VECTOR('',#875,1000.);
#541=VECTOR('',#876,1000.);
#542=VECTOR('',#877,1000.);
#543=VECTOR('',#878,1000.);
#544=VECTOR('',#879,1000.);
#545=VECTOR('',#880,1000.);
#546=VECTOR('',#881,1000.);
#547=VECTOR('',#886,1000.);
#548=VECTOR('',#887,1000.);
#549=VECTOR('',#890,1000.);
#550=VECTOR('',#897,1000.);
#551=VECTOR('',#898,1000.);
#552=VECTOR('',#899,1000.);
#553=VECTOR('',#900,1000.);
#554=VECTOR('',#901,1000.);
#555=VECTOR('',#902,1000.);
#556=VECTOR('',#903,1000.);
#557=VECTOR('',#914,1000.);
#558=VECTOR('',#925,1000.);
#559=VECTOR('',#926,1000.);
#560=VECTOR('',#927,1000.);
#561=VECTOR('',#928,1000.);
#562=VECTOR('',#929,1000.);
#563=VECTOR('',#930,1000.);
#564=VECTOR('',#931,1000.);
#565=VECTOR('',#946,1000.);
#566=VECTOR('',#951,1000.);
#567=VECTOR('',#952,1000.);
#568=VECTOR('',#953,1000.);
#569=VECTOR('',#954,1000.);
#570=VECTOR('',#955,1000.);
#571=VECTOR('',#956,1000.);
#572=VECTOR('',#957,1000.);
#573=VECTOR('',#976,1000.);
#574=VECTOR('',#977,1000.);
#575=VECTOR('',#980,1000.);
#576=VECTOR('',#981,1000.);
#577=VECTOR('',#984,1000.);
#578=VECTOR('',#985,1000.);
#579=VECTOR('',#988,1000.);
#580=VECTOR('',#989,1000.);
#581=VECTOR('',#992,1000.);
#582=VECTOR('',#993,1000.);
#583=VECTOR('',#996,1000.);
#584=VECTOR('',#997,1000.);
#585=VECTOR('',#1002,1000.);
#586=VECTOR('',#1007,1000.);
#587=VECTOR('',#1012,1000.);
#588=VECTOR('',#1017,1000.);
#589=VECTOR('',#1020,1000.);
#590=VECTOR('',#1025,1000.);
#591=VECTOR('',#1030,1000.);
#592=VECTOR('',#1035,1000.);
#593=VECTOR('',#1040,1000.);
#594=VECTOR('',#1043,1000.);
#595=EDGE_LOOP('',(#59,#60,#61,#62,#63,#64,#65,#66,#67));
#596=EDGE_LOOP('',(#68,#69,#70,#71,#72,#73,#74,#75,#76));
#597=EDGE_LOOP('',(#77,#78,#79,#80,#81,#82,#83,#84,#85));
#598=EDGE_LOOP('',(#86,#87,#88,#89,#90,#91,#92,#93,#94));
#599=EDGE_LOOP('',(#95));
#600=EDGE_LOOP('',(#96,#97,#98,#99,#100,#101));
#601=EDGE_LOOP('',(#102,#103,#104,#105));
#602=EDGE_LOOP('',(#106,#107,#108,#109,#110,#111,#112,#113,#114));
#603=EDGE_LOOP('',(#115,#116,#117,#118));
#604=EDGE_LOOP('',(#119,#120,#121,#122,#123,#124,#125,#126,#127));
#605=EDGE_LOOP('',(#128,#129,#130,#131,#132,#133,#134,#135,#136));
#606=EDGE_LOOP('',(#137,#138,#139,#140,#141,#142,#143,#144,#145));
#607=EDGE_LOOP('',(#146,#147,#148,#149,#150,#151,#152,#153,#154));
#608=EDGE_LOOP('',(#155));
#609=EDGE_LOOP('',(#156,#157,#158,#159,#160,#161));
#610=EDGE_LOOP('',(#162,#163,#164,#165,#166,#167,#168,#169,#170));
#611=EDGE_LOOP('',(#171,#172,#173,#174,#175,#176));
#612=EDGE_LOOP('',(#177,#178,#179,#180));
#613=EDGE_LOOP('',(#181,#182,#183,#184));
#614=EDGE_LOOP('',(#185,#186,#187,#188));
#615=EDGE_LOOP('',(#189,#190,#191,#192));
#616=EDGE_LOOP('',(#193,#194,#195,#196,#197,#198));
#617=EDGE_LOOP('',(#199));
#618=EDGE_LOOP('',(#200));
#619=EDGE_LOOP('',(#201,#202,#203,#204));
#620=EDGE_LOOP('',(#205,#206,#207,#208));
#621=EDGE_LOOP('',(#209,#210,#211,#212));
#622=EDGE_LOOP('',(#213,#214,#215,#216));
#623=EDGE_LOOP('',(#217,#218,#219,#220));
#624=EDGE_LOOP('',(#221,#222,#223,#224));
#625=EDGE_LOOP('',(#225,#226,#227,#228));
#626=EDGE_LOOP('',(#229,#230,#231,#232));
#627=EDGE_LOOP('',(#233,#234,#235));
#628=EDGE_LOOP('',(#236,#237,#238,#239));
#629=EDGE_LOOP('',(#240,#241,#242,#243));
#630=EDGE_LOOP('',(#244,#245,#246,#247));
#631=EDGE_LOOP('',(#248,#249,#250,#251));
#632=EDGE_LOOP('',(#252,#253,#254,#255));
#633=EDGE_LOOP('',(#256,#257,#258,#259));
#634=EDGE_LOOP('',(#260,#261,#262));
#635=EDGE_LOOP('',(#263,#264,#265,#266));
#636=EDGE_LOOP('',(#267,#268,#269,#270));
#637=FACE_BOUND('',#595,.T.);
#638=FACE_BOUND('',#596,.T.);
#639=FACE_BOUND('',#597,.T.);
#640=FACE_BOUND('',#598,.T.);
#641=FACE_BOUND('',#599,.T.);
#642=FACE_BOUND('',#600,.T.);
#643=FACE_BOUND('',#601,.T.);
#644=FACE_BOUND('',#602,.T.);
#645=FACE_BOUND('',#603,.T.);
#646=FACE_BOUND('',#604,.T.);
#647=FACE_BOUND('',#605,.T.);
#648=FACE_BOUND('',#606,.T.);
#649=FACE_BOUND('',#607,.T.);
#650=FACE_BOUND('',#608,.T.);
#651=FACE_BOUND('',#609,.T.);
#652=FACE_BOUND('',#610,.T.);
#653=FACE_BOUND('',#611,.T.);
#654=FACE_BOUND('',#612,.T.);
#655=FACE_BOUND('',#613,.T.);
#656=FACE_BOUND('',#614,.T.);
#657=FACE_BOUND('',#615,.T.);
#658=FACE_BOUND('',#616,.T.);
#659=FACE_BOUND('',#617,.T.);
#660=FACE_BOUND('',#618,.T.);
#661=FACE_BOUND('',#619,.T.);
#662=FACE_BOUND('',#620,.T.);
#663=FACE_BOUND('',#621,.T.);
#664=FACE_BOUND('',#622,.T.);
#665=FACE_BOUND('',#623,.T.);
#666=FACE_BOUND('',#624,.T.);
#667=FACE_BOUND('',#625,.T.);
#668=FACE_BOUND('',#626,.T.);
#669=FACE_BOUND('',#627,.T.);
#670=FACE_BOUND('',#628,.T.);
#671=FACE_BOUND('',#629,.T.);
#672=FACE_BOUND('',#630,.T.);
#673=FACE_BOUND('',#631,.T.);
#674=FACE_BOUND('',#632,.T.);
#675=FACE_BOUND('',#633,.T.);
#676=FACE_BOUND('',#634,.T.);
#677=FACE_BOUND('',#635,.T.);
#678=FACE_BOUND('',#636,.T.);
#679=PLANE('',#763);
#680=PLANE('',#772);
#681=PLANE('',#773);
#682=PLANE('',#774);
#683=PLANE('',#777);
#684=PLANE('',#779);
#685=PLANE('',#780);
#686=PLANE('',#789);
#687=PLANE('',#798);
#688=PLANE('',#799);
#689=PLANE('',#807);
#690=PLANE('',#808);
#691=PLANE('',#809);
#692=PLANE('',#810);
#693=PLANE('',#811);
#694=PLANE('',#812);
#695=PLANE('',#814);
#696=PLANE('',#815);
#697=PLANE('',#816);
#698=PLANE('',#817);
#699=PLANE('',#818);
#700=PLANE('',#819);
#701=PLANE('',#820);
#702=PLANE('',#821);
#703=PLANE('',#823);
#704=PLANE('',#824);
#705=PLANE('',#825);
#706=PLANE('',#826);
#707=PLANE('',#827);
#708=PLANE('',#828);
#709=PLANE('',#830);
#710=PLANE('',#831);
#711=ADVANCED_FACE('',(#637),#679,.F.);
#712=ADVANCED_FACE('',(#638),#54,.T.);
#713=ADVANCED_FACE('',(#639),#680,.F.);
#714=ADVANCED_FACE('',(#640),#681,.T.);
#715=ADVANCED_FACE('',(#641,#642),#682,.F.);
#716=ADVANCED_FACE('',(#643),#683,.F.);
#717=ADVANCED_FACE('',(#644),#684,.F.);
#718=ADVANCED_FACE('',(#645),#685,.F.);
#719=ADVANCED_FACE('',(#646),#55,.T.);
#720=ADVANCED_FACE('',(#647),#686,.T.);
#721=ADVANCED_FACE('',(#648),#56,.T.);
#722=ADVANCED_FACE('',(#649),#687,.F.);
#723=ADVANCED_FACE('',(#650,#651),#688,.T.);
#724=ADVANCED_FACE('',(#652),#57,.T.);
#725=ADVANCED_FACE('',(#653),#689,.F.);
#726=ADVANCED_FACE('',(#654),#690,.F.);
#727=ADVANCED_FACE('',(#655),#691,.F.);
#728=ADVANCED_FACE('',(#656),#692,.T.);
#729=ADVANCED_FACE('',(#657),#693,.T.);
#730=ADVANCED_FACE('',(#658),#694,.T.);
#731=ADVANCED_FACE('',(#659,#660),#58,.F.);
#732=ADVANCED_FACE('',(#661),#695,.F.);
#733=ADVANCED_FACE('',(#662),#696,.F.);
#734=ADVANCED_FACE('',(#663),#697,.F.);
#735=ADVANCED_FACE('',(#664),#698,.T.);
#736=ADVANCED_FACE('',(#665),#699,.T.);
#737=ADVANCED_FACE('',(#666),#700,.T.);
#738=ADVANCED_FACE('',(#667),#701,.F.);
#739=ADVANCED_FACE('',(#668),#702,.F.);
#740=ADVANCED_FACE('',(#669),#20,.T.);
#741=ADVANCED_FACE('',(#670),#703,.F.);
#742=ADVANCED_FACE('',(#671),#704,.T.);
#743=ADVANCED_FACE('',(#672),#705,.F.);
#744=ADVANCED_FACE('',(#673),#706,.T.);
#745=ADVANCED_FACE('',(#674),#707,.T.);
#746=ADVANCED_FACE('',(#675),#708,.T.);
#747=ADVANCED_FACE('',(#676),#21,.T.);
#748=ADVANCED_FACE('',(#677),#709,.T.);
#749=ADVANCED_FACE('',(#678),#710,.T.);
#750=CLOSED_SHELL('',(#711,#712,#713,#714,#715,#716,#717,#718,#719,#720,
#721,#722,#723,#724,#725,#726,#727,#728,#729,#730,#731,#732,#733,#734,#735,
#736,#737,#738,#739,#740,#741,#742,#743,#744,#745,#746,#747,#748,#749));
#751=STYLED_ITEM('',(#752),#759);
#752=PRESENTATION_STYLE_ASSIGNMENT((#753));
#753=SURFACE_STYLE_USAGE(.BOTH.,#754);
#754=SURFACE_SIDE_STYLE('',(#755));
#755=SURFACE_STYLE_FILL_AREA(#756);
#756=FILL_AREA_STYLE('',(#757));
#757=FILL_AREA_STYLE_COLOUR('',#758);
#758=COLOUR_RGB('',0.819999992847443,0.819999992847443,0.819999992847443);
#759=MANIFOLD_SOLID_BREP('2.21.08.M5',#750);
#760=SHAPE_DEFINITION_REPRESENTATION(#1274,#761);
#761=SHAPE_REPRESENTATION('BTN08M4',(#762),#1269);
#762=AXIS2_PLACEMENT_3D('',#1046,#832,#833);
#763=AXIS2_PLACEMENT_3D('',#1047,#834,#835);
#764=AXIS2_PLACEMENT_3D('',#1066,#845,#846);
#765=AXIS2_PLACEMENT_3D('',#1067,#847,#848);
#766=AXIS2_PLACEMENT_3D('',#1070,#849,#850);
#767=AXIS2_PLACEMENT_3D('',#1072,#851,#852);
#768=AXIS2_PLACEMENT_3D('',#1074,#853,#854);
#769=AXIS2_PLACEMENT_3D('',#1078,#856,#857);
#770=AXIS2_PLACEMENT_3D('',#1080,#858,#859);
#771=AXIS2_PLACEMENT_3D('',#1084,#861,#862);
#772=AXIS2_PLACEMENT_3D('',#1085,#863,#864);
#773=AXIS2_PLACEMENT_3D('',#1101,#873,#874);
#774=AXIS2_PLACEMENT_3D('',#1114,#882,#883);
#775=AXIS2_PLACEMENT_3D('',#1115,#884,#885);
#776=AXIS2_PLACEMENT_3D('',#1121,#888,#889);
#777=AXIS2_PLACEMENT_3D('',#1124,#891,#892);
#778=AXIS2_PLACEMENT_3D('',#1125,#893,#894);
#779=AXIS2_PLACEMENT_3D('',#1126,#895,#896);
#780=AXIS2_PLACEMENT_3D('',#1139,#904,#905);
#781=AXIS2_PLACEMENT_3D('',#1140,#906,#907);
#782=AXIS2_PLACEMENT_3D('',#1141,#908,#909);
#783=AXIS2_PLACEMENT_3D('',#1144,#910,#911);
#784=AXIS2_PLACEMENT_3D('',#1146,#912,#913);
#785=AXIS2_PLACEMENT_3D('',#1150,#915,#916);
#786=AXIS2_PLACEMENT_3D('',#1151,#917,#918);
#787=AXIS2_PLACEMENT_3D('',#1153,#919,#920);
#788=AXIS2_PLACEMENT_3D('',#1155,#921,#922);
#789=AXIS2_PLACEMENT_3D('',#1156,#923,#924);
#790=AXIS2_PLACEMENT_3D('',#1169,#932,#933);
#791=AXIS2_PLACEMENT_3D('',#1170,#934,#935);
#792=AXIS2_PLACEMENT_3D('',#1172,#936,#937);
#793=AXIS2_PLACEMENT_3D('',#1174,#938,#939);
#794=AXIS2_PLACEMENT_3D('',#1176,#940,#941);
#795=AXIS2_PLACEMENT_3D('',#1178,#942,#943);
#796=AXIS2_PLACEMENT_3D('',#1180,#944,#945);
#797=AXIS2_PLACEMENT_3D('',#1184,#947,#948);
#798=AXIS2_PLACEMENT_3D('',#1185,#949,#950);
#799=AXIS2_PLACEMENT_3D('',#1198,#958,#959);
#800=AXIS2_PLACEMENT_3D('',#1199,#960,#961);
#801=AXIS2_PLACEMENT_3D('',#1201,#962,#963);
#802=AXIS2_PLACEMENT_3D('',#1202,#964,#965);
#803=AXIS2_PLACEMENT_3D('',#1205,#966,#967);
#804=AXIS2_PLACEMENT_3D('',#1206,#968,#969);
#805=AXIS2_PLACEMENT_3D('',#1208,#970,#971);
#806=AXIS2_PLACEMENT_3D('',#1210,#972,#973);
#807=AXIS2_PLACEMENT_3D('',#1211,#974,#975);
#808=AXIS2_PLACEMENT_3D('',#1214,#978,#979);
#809=AXIS2_PLACEMENT_3D('',#1217,#982,#983);
#810=AXIS2_PLACEMENT_3D('',#1220,#986,#987);
#811=AXIS2_PLACEMENT_3D('',#1223,#990,#991);
#812=AXIS2_PLACEMENT_3D('',#1226,#994,#995);
#813=AXIS2_PLACEMENT_3D('',#1229,#998,#999);
#814=AXIS2_PLACEMENT_3D('',#1230,#1000,#1001);
#815=AXIS2_PLACEMENT_3D('',#1232,#1003,#1004);
#816=AXIS2_PLACEMENT_3D('',#1233,#1005,#1006);
#817=AXIS2_PLACEMENT_3D('',#1235,#1008,#1009);
#818=AXIS2_PLACEMENT_3D('',#1236,#1010,#1011);
#819=AXIS2_PLACEMENT_3D('',#1238,#1013,#1014);
#820=AXIS2_PLACEMENT_3D('',#1239,#1015,#1016);
#821=AXIS2_PLACEMENT_3D('',#1246,#1018,#1019);
#822=AXIS2_PLACEMENT_3D('',#1248,#1021,#1022);
#823=AXIS2_PLACEMENT_3D('',#1249,#1023,#1024);
#824=AXIS2_PLACEMENT_3D('',#1251,#1026,#1027);
#825=AXIS2_PLACEMENT_3D('',#1252,#1028,#1029);
#826=AXIS2_PLACEMENT_3D('',#1254,#1031,#1032);
#827=AXIS2_PLACEMENT_3D('',#1255,#1033,#1034);
#828=AXIS2_PLACEMENT_3D('',#1257,#1036,#1037);
#829=AXIS2_PLACEMENT_3D('',#1258,#1038,#1039);
#830=AXIS2_PLACEMENT_3D('',#1265,#1041,#1042);
#831=AXIS2_PLACEMENT_3D('',#1267,#1044,#1045);
#832=DIRECTION('',(0.,0.,1.));
#833=DIRECTION('',(1.,0.,0.));
#834=DIRECTION('',(-2.77555756156289E-17,1.,0.));
#835=DIRECTION('',(-1.,-2.77555756156289E-17,0.));
#836=DIRECTION('',(0.70710678118655,1.96261557335473E-17,-0.707106781186545));
#837=DIRECTION('',(-0.707106781186546,-1.96261557335471E-17,-0.707106781186549));
#838=DIRECTION('',(1.,2.77555756156289E-17,0.));
#839=DIRECTION('',(0.,0.,-1.));
#840=DIRECTION('',(1.,2.77555756156289E-17,0.));
#841=DIRECTION('',(0.,0.,1.));
#842=DIRECTION('',(-0.707106781186545,-1.96261557335471E-17,0.707106781186551));
#843=DIRECTION('',(-0.707106781186547,-1.96261557335472E-17,-0.707106781186549));
#844=DIRECTION('',(1.,2.77555756156289E-17,0.));
#845=DIRECTION('',(0.,0.,-1.));
#846=DIRECTION('',(1.,2.77555756156289E-17,0.));
#847=DIRECTION('',(-0.707106781186549,-1.91732810500486E-16,0.707106781186546));
#848=DIRECTION('',(-0.707106781186546,-1.91732810500485E-16,-0.707106781186549));
#849=DIRECTION('',(0.707106781186549,1.96261557335472E-17,0.707106781186546));
#850=DIRECTION('',(0.707106781186546,1.96261557335471E-17,-0.707106781186549));
#851=DIRECTION('',(0.,0.,-1.));
#852=DIRECTION('',(1.,2.77555756156289E-17,0.));
#853=DIRECTION('',(0.,0.,-1.));
#854=DIRECTION('',(1.,2.77555756156289E-17,0.));
#855=DIRECTION('',(0.,0.,-1.));
#856=DIRECTION('',(-2.67490270053783E-33,9.63735264431559E-17,1.));
#857=DIRECTION('',(-2.77555756156289E-17,1.,-9.63735264431559E-17));
#858=DIRECTION('',(1.96261557335472E-17,-0.707106781186548,0.707106781186548));
#859=DIRECTION('',(1.96261557335472E-17,-0.707106781186548,-0.707106781186548));
#860=DIRECTION('',(0.,0.,-1.));
#861=DIRECTION('',(0.,0.,-1.));
#862=DIRECTION('',(1.,2.77555756156289E-17,0.));
#863=DIRECTION('',(2.77555756156289E-17,-1.,0.));
#864=DIRECTION('',(1.,2.77555756156289E-17,0.));
#865=DIRECTION('',(0.,0.,-1.));
#866=DIRECTION('',(-0.70710678118655,-1.96261557335473E-17,-0.707106781186545));
#867=DIRECTION('',(-0.707106781186551,-1.96261557335473E-17,0.707106781186545));
#868=DIRECTION('',(1.,2.77555756156289E-17,0.));
#869=DIRECTION('',(0.707106781186546,1.96261557335471E-17,0.707106781186549));
#870=DIRECTION('',(-0.707106781186551,-1.96261557335473E-17,0.707106781186545));
#871=DIRECTION('',(1.,2.77555756156289E-17,0.));
#872=DIRECTION('',(1.,2.77555756156289E-17,0.));
#873=DIRECTION('',(1.,2.77555756156289E-17,0.));
#874=DIRECTION('',(-2.77555756156289E-17,1.,0.));
#875=DIRECTION('',(0.,0.,-1.));
#876=DIRECTION('',(2.77555756156289E-17,-1.,0.));
#877=DIRECTION('',(1.96261557335472E-17,-0.707106781186547,0.707106781186548));
#878=DIRECTION('',(2.77555756156289E-17,-1.,9.63735264431559E-17));
#879=DIRECTION('',(2.77555756156289E-17,-1.,0.));
#880=DIRECTION('',(0.,0.,-1.));
#881=DIRECTION('',(-2.77555756156289E-17,1.,0.));
#882=DIRECTION('',(-2.67490270053783E-33,9.63735264431559E-17,1.));
#883=DIRECTION('',(-2.77555756156289E-17,1.,-9.63735264431559E-17));
#884=DIRECTION('',(-2.67490270053783E-33,9.63735264431559E-17,1.));
#885=DIRECTION('',(0.,-1.,9.63735264431559E-17));
#886=DIRECTION('',(1.,2.77555756156289E-17,0.));
#887=DIRECTION('',(1.,2.77555756156289E-17,0.));
#888=DIRECTION('',(-2.67490270053783E-33,9.63735264431559E-17,1.));
#889=DIRECTION('',(-2.77555756156289E-17,1.,-9.63735264431559E-17));
#890=DIRECTION('',(2.77555756156289E-17,-1.,9.63735264431559E-17));
#891=DIRECTION('',(-1.96261557335472E-17,0.707106781186548,0.707106781186547));
#892=DIRECTION('',(-1.96261557335472E-17,0.707106781186547,-0.707106781186548));
#893=DIRECTION('',(-1.96261557335472E-17,0.707106781186548,0.707106781186547));
#894=DIRECTION('',(-1.96261557335472E-17,0.707106781186547,-0.707106781186548));
#895=DIRECTION('',(1.,2.77555756156289E-17,0.));
#896=DIRECTION('',(-2.77555756156289E-17,1.,0.));
#897=DIRECTION('',(0.,0.,-1.));
#898=DIRECTION('',(-2.77555756156289E-17,1.,0.));
#899=DIRECTION('',(1.96261557335472E-17,-0.707106781186548,-0.707106781186548));
#900=DIRECTION('',(0.,0.,-1.));
#901=DIRECTION('',(-2.77555756156289E-17,1.,0.));
#902=DIRECTION('',(0.,0.,-1.));
#903=DIRECTION('',(-2.77555756156289E-17,1.,0.));
#904=DIRECTION('',(1.96261557335472E-17,-0.707106781186548,0.707106781186548));
#905=DIRECTION('',(-1.96261557335472E-17,0.707106781186548,0.707106781186548));
#906=DIRECTION('',(0.,0.,-1.));
#907=DIRECTION('',(1.,2.77555756156289E-17,0.));
#908=DIRECTION('',(-0.707106781186549,-1.23491129792974E-16,0.707106781186546));
#909=DIRECTION('',(-0.707106781186546,-1.23491129792973E-16,-0.707106781186549));
#910=DIRECTION('',(-0.707106781186544,-1.23556758875842E-16,-0.707106781186551));
#911=DIRECTION('',(0.707106781186551,1.23556758875843E-16,-0.707106781186544));
#912=DIRECTION('',(0.,0.,1.));
#913=DIRECTION('',(-1.,-2.77555756156289E-17,0.));
#914=DIRECTION('',(0.,0.,-1.));
#915=DIRECTION('',(0.,0.,1.));
#916=DIRECTION('',(-1.,-2.77555756156289E-17,0.));
#917=DIRECTION('',(0.707106781186545,1.96261557335471E-17,-0.70710678118655));
#918=DIRECTION('',(-0.70710678118655,-1.96261557335473E-17,-0.707106781186545));
#919=DIRECTION('',(-0.707106781186545,-1.06217477186525E-16,-0.70710678118655));
#920=DIRECTION('',(0.70710678118655,1.06217477186525E-16,-0.707106781186545));
#921=DIRECTION('',(0.,0.,1.));
#922=DIRECTION('',(-1.,-2.77555756156289E-17,0.));
#923=DIRECTION('',(4.61436444609831E-16,-1.,0.));
#924=DIRECTION('',(1.,4.61436444609831E-16,0.));
#925=DIRECTION('',(-1.,-4.61436444609831E-16,0.));
#926=DIRECTION('',(0.707106781186547,3.26284839070222E-16,0.707106781186549));
#927=DIRECTION('',(0.707106781186545,3.26284839070221E-16,-0.707106781186551));
#928=DIRECTION('',(-1.,-4.61436444609831E-16,0.));
#929=DIRECTION('',(-1.,-4.61436444609831E-16,0.));
#930=DIRECTION('',(0.707106781186546,3.26284839070222E-16,0.707106781186549));
#931=DIRECTION('',(-0.70710678118655,-3.26284839070223E-16,0.707106781186545));
#932=DIRECTION('',(0.,0.,-1.));
#933=DIRECTION('',(1.,2.77555756156289E-17,0.));
#934=DIRECTION('',(0.707106781186551,1.96261557335473E-17,0.707106781186545));
#935=DIRECTION('',(0.707106781186545,1.96261557335471E-17,-0.707106781186551));
#936=DIRECTION('',(-0.707106781186551,-1.96261557335473E-17,0.707106781186545));
#937=DIRECTION('',(-0.707106781186545,-1.96261557335471E-17,-0.707106781186551));
#938=DIRECTION('',(0.,0.,-1.));
#939=DIRECTION('',(1.,2.77555756156289E-17,0.));
#940=DIRECTION('',(0.707106781186549,1.96261557335472E-17,0.707106781186546));
#941=DIRECTION('',(0.707106781186546,1.96261557335471E-17,-0.707106781186549));
#942=DIRECTION('',(-0.707106781186549,-1.91732810500486E-16,0.707106781186546));
#943=DIRECTION('',(-0.707106781186546,-1.91732810500485E-16,-0.707106781186549));
#944=DIRECTION('',(0.,0.,-1.));
#945=DIRECTION('',(1.,2.77555756156289E-17,0.));
#946=DIRECTION('',(0.,0.,-1.));
#947=DIRECTION('',(0.,0.,1.));
#948=DIRECTION('',(-1.,-2.77555756156289E-17,0.));
#949=DIRECTION('',(2.77555756156289E-17,-1.,0.));
#950=DIRECTION('',(1.,2.77555756156289E-17,0.));
#951=DIRECTION('',(1.,2.77555756156289E-17,0.));
#952=DIRECTION('',(0.707106781186551,1.96261557335473E-17,-0.707106781186545));
#953=DIRECTION('',(-0.707106781186546,-1.96261557335471E-17,-0.707106781186549));
#954=DIRECTION('',(1.,2.77555756156289E-17,0.));
#955=DIRECTION('',(0.707106781186551,1.96261557335473E-17,-0.707106781186545));
#956=DIRECTION('',(0.70710678118655,1.96261557335473E-17,0.707106781186545));
#957=DIRECTION('',(-1.,-2.77555756156289E-17,0.));
#958=DIRECTION('',(0.,0.,1.));
#959=DIRECTION('',(-1.,-2.77555756156289E-17,0.));
#960=DIRECTION('',(0.,0.,1.));
#961=DIRECTION('',(1.,0.,0.));
#962=DIRECTION('',(0.,0.,-1.));
#963=DIRECTION('',(1.,2.77555756156289E-17,0.));
#964=DIRECTION('',(0.,0.,1.));
#965=DIRECTION('',(-1.,-2.77555756156289E-17,0.));
#966=DIRECTION('',(0.,0.,-1.));
#967=DIRECTION('',(1.,2.77555756156289E-17,0.));
#968=DIRECTION('',(0.,0.,1.));
#969=DIRECTION('',(-1.,-2.77555756156289E-17,0.));
#970=DIRECTION('',(-0.707106781186544,-1.23556758875842E-16,-0.707106781186551));
#971=DIRECTION('',(0.707106781186551,1.23556758875843E-16,-0.707106781186544));
#972=DIRECTION('',(-0.707106781186549,-1.23491129792974E-16,0.707106781186546));
#973=DIRECTION('',(-0.707106781186546,-1.23491129792973E-16,-0.707106781186549));
#974=DIRECTION('',(0.,0.,-1.));
#975=DIRECTION('',(1.,2.77555756156289E-17,0.));
#976=DIRECTION('',(2.77555756156289E-17,-1.,0.));
#977=DIRECTION('',(2.71151140961697E-16,-1.,0.));
#978=DIRECTION('',(0.,0.,-1.));
#979=DIRECTION('',(1.,2.77555756156289E-17,0.));
#980=DIRECTION('',(2.77555756156289E-17,-1.,0.));
#981=DIRECTION('',(2.77555756156289E-17,-1.,0.));
#982=DIRECTION('',(0.,0.,-1.));
#983=DIRECTION('',(1.,2.77555756156289E-17,0.));
#984=DIRECTION('',(-2.77555756156289E-17,1.,0.));
#985=DIRECTION('',(2.77555756156289E-17,-1.,0.));
#986=DIRECTION('',(0.,0.,1.));
#987=DIRECTION('',(-1.,-2.77555756156289E-17,0.));
#988=DIRECTION('',(1.37993273473482E-16,-1.,0.));
#989=DIRECTION('',(1.74739172759237E-16,-1.,0.));
#990=DIRECTION('',(0.,0.,1.));
#991=DIRECTION('',(-1.,-2.77555756156289E-17,0.));
#992=DIRECTION('',(1.74642830586E-16,-1.,0.));
#993=DIRECTION('',(1.50214196798238E-16,-1.,0.));
#994=DIRECTION('',(0.,0.,1.));
#995=DIRECTION('',(-1.,-2.77555756156289E-17,0.));
#996=DIRECTION('',(1.7473564426346E-16,-1.,0.));
#997=DIRECTION('',(1.74735644125079E-16,-1.,0.));
#998=DIRECTION('',(0.,0.,1.));
#999=DIRECTION('',(-1.,-2.77555756156289E-17,0.));
#1000=DIRECTION('',(-0.707106781186545,-1.96261557335471E-17,-0.707106781186551));
#1001=DIRECTION('',(0.707106781186551,1.96261557335473E-17,-0.707106781186545));
#1002=DIRECTION('',(-2.77555756156289E-17,1.,0.));
#1003=DIRECTION('',(0.707106781186545,1.96261557335471E-17,-0.70710678118655));
#1004=DIRECTION('',(0.70710678118655,1.96261557335473E-17,0.707106781186545));
#1005=DIRECTION('',(-0.707106781186545,-1.96261557335471E-17,-0.707106781186551));
#1006=DIRECTION('',(0.707106781186551,1.96261557335473E-17,-0.707106781186545));
#1007=DIRECTION('',(-2.77555756156289E-17,1.,0.));
#1008=DIRECTION('',(-0.707106781186549,-1.96261557335472E-17,0.707106781186546));
#1009=DIRECTION('',(-0.707106781186546,-1.96261557335471E-17,-0.707106781186549));
#1010=DIRECTION('',(-0.707106781186549,-1.91732810500486E-16,0.707106781186546));
#1011=DIRECTION('',(-0.707106781186546,-1.96261557335471E-17,-0.707106781186549));
#1012=DIRECTION('',(2.71151140961697E-16,-1.,0.));
#1013=DIRECTION('',(0.707106781186549,1.96261557335472E-17,0.707106781186546));
#1014=DIRECTION('',(-0.707106781186546,-1.96261557335471E-17,0.707106781186549));
#1015=DIRECTION('',(-0.707106781186545,-1.06217477186525E-16,-0.70710678118655));
#1016=DIRECTION('',(0.70710678118655,1.96261557335473E-17,-0.707106781186545));
#1017=DIRECTION('',(-1.50214196798238E-16,1.,0.));
#1018=DIRECTION('',(0.707106781186545,1.96261557335471E-17,-0.70710678118655));
#1019=DIRECTION('',(0.70710678118655,1.96261557335473E-17,0.707106781186545));
#1020=DIRECTION('',(-0.70710678118655,-1.96261557335473E-17,-0.707106781186545));
#1021=DIRECTION('',(0.,0.,-1.));
#1022=DIRECTION('',(1.,2.77555756156289E-17,0.));
#1023=DIRECTION('',(-0.707106781186544,-1.23556758875842E-16,-0.707106781186551));
#1024=DIRECTION('',(0.707106781186551,1.96261557335473E-17,-0.707106781186544));
#1025=DIRECTION('',(-1.74735644125079E-16,1.,0.));
#1026=DIRECTION('',(-0.707106781186549,-1.23491129792974E-16,0.707106781186546));
#1027=DIRECTION('',(-0.707106781186546,-1.96261557335471E-17,-0.707106781186549));
#1028=DIRECTION('',(-0.707106781186545,-1.23559253996984E-16,-0.70710678118655));
#1029=DIRECTION('',(0.70710678118655,1.96261557335473E-17,-0.707106781186545));
#1030=DIRECTION('',(-1.74739172759237E-16,1.,0.));
#1031=DIRECTION('',(-0.707106781186549,-1.23556758973693E-16,0.707106781186546));
#1032=DIRECTION('',(-0.707106781186546,-1.96261557335471E-17,-0.707106781186549));
#1033=DIRECTION('',(-0.707106781186549,-9.75759794312292E-17,0.707106781186547));
#1034=DIRECTION('',(-0.707106781186547,-1.96261557335472E-17,-0.707106781186549));
#1035=DIRECTION('',(1.37993273473482E-16,-1.,0.));
#1036=DIRECTION('',(0.707106781186551,1.96261557335473E-17,0.707106781186545));
#1037=DIRECTION('',(-0.707106781186545,-1.96261557335471E-17,0.707106781186551));
#1038=DIRECTION('',(0.,0.,-1.));
#1039=DIRECTION('',(1.,2.77555756156289E-17,0.));
#1040=DIRECTION('',(-0.707106781186545,-1.96261557335471E-17,0.707106781186551));
#1041=DIRECTION('',(0.707106781186551,1.96261557335473E-17,0.707106781186545));
#1042=DIRECTION('',(-0.707106781186545,-1.96261557335471E-17,0.707106781186551));
#1043=DIRECTION('',(-2.77555756156289E-17,1.,0.));
#1044=DIRECTION('',(-0.707106781186551,-1.96261557335473E-17,0.707106781186545));
#1045=DIRECTION('',(-0.707106781186545,-1.96261557335471E-17,-0.707106781186551));
#1046=CARTESIAN_POINT('',(0.,0.,0.));
#1047=CARTESIAN_POINT('',(7.,-5.,13.));
#1048=CARTESIAN_POINT('',(12.6,-5.,12.6));
#1049=CARTESIAN_POINT('',(12.6,-5.,12.6));
#1050=CARTESIAN_POINT('',(12.2,-5.,13.));
#1051=CARTESIAN_POINT('',(12.2,-5.,13.));
#1052=CARTESIAN_POINT('',(11.8,-5.,12.6));
#1053=CARTESIAN_POINT('',(7.,-5.,12.6));
#1054=CARTESIAN_POINT('',(11.,-5.,12.6));
#1055=CARTESIAN_POINT('',(11.,-5.,13.));
#1056=CARTESIAN_POINT('',(11.,-5.,11.));
#1057=CARTESIAN_POINT('',(7.,-5.,11.));
#1058=CARTESIAN_POINT('',(15.,-5.,11.));
#1059=CARTESIAN_POINT('',(15.,-5.,13.));
#1060=CARTESIAN_POINT('',(15.,-5.,12.6));
#1061=CARTESIAN_POINT('',(14.6,-5.,13.));
#1062=CARTESIAN_POINT('',(14.6,-5.,13.));
#1063=CARTESIAN_POINT('',(14.6,-5.,13.));
#1064=CARTESIAN_POINT('',(14.2,-5.,12.6));
#1065=CARTESIAN_POINT('',(7.,-5.,12.6));
#1066=CARTESIAN_POINT('',(11.,6.,13.));
#1067=CARTESIAN_POINT('',(11.,6.,11.8));
#1068=CARTESIAN_POINT('',(11.8,9.91918358845308,12.6));
#1069=CARTESIAN_POINT('',(12.2,9.81575680566778,13.));
#1070=CARTESIAN_POINT('',(11.,6.,14.2));
#1071=CARTESIAN_POINT('',(12.6,9.66606055596467,12.6));
#1072=CARTESIAN_POINT('',(11.,6.,12.6));
#1073=CARTESIAN_POINT('',(14.2,8.4,12.6));
#1074=CARTESIAN_POINT('',(11.,6.,12.6));
#1075=CARTESIAN_POINT('',(15.,6.,12.6));
#1076=CARTESIAN_POINT('',(15.,6.,13.));
#1077=CARTESIAN_POINT('',(15.,6.,8.));
#1078=CARTESIAN_POINT('',(11.,6.,8.));
#1079=CARTESIAN_POINT('',(14.8729833462074,7.,8.));
#1080=CARTESIAN_POINT('',(11.,6.,7.));
#1081=CARTESIAN_POINT('',(11.,10.,11.));
#1082=CARTESIAN_POINT('',(11.,10.,13.));
#1083=CARTESIAN_POINT('',(11.,10.,12.6));
#1084=CARTESIAN_POINT('',(11.,6.,12.6));
#1085=CARTESIAN_POINT('',(7.,10.,11.));
#1086=CARTESIAN_POINT('',(7.,10.,11.));
#1087=CARTESIAN_POINT('',(7.,10.,12.6));
#1088=CARTESIAN_POINT('',(7.,10.,11.));
#1089=CARTESIAN_POINT('',(7.,10.,12.6));
#1090=CARTESIAN_POINT('',(7.4,10.,13.));
#1091=CARTESIAN_POINT('',(7.8,10.,12.6));
#1092=CARTESIAN_POINT('',(7.8,10.,12.6));
#1093=CARTESIAN_POINT('',(7.,10.,12.6));
#1094=CARTESIAN_POINT('',(9.4,10.,12.6));
#1095=CARTESIAN_POINT('',(9.8,10.,13.));
#1096=CARTESIAN_POINT('',(9.8,10.,13.));
#1097=CARTESIAN_POINT('',(10.2,10.,12.6));
#1098=CARTESIAN_POINT('',(10.2,10.,12.6));
#1099=CARTESIAN_POINT('',(7.,10.,12.6));
#1100=CARTESIAN_POINT('',(7.,10.,11.));
#1101=CARTESIAN_POINT('',(15.,10.,13.));
#1102=CARTESIAN_POINT('',(15.,-1.5,14.5));
#1103=CARTESIAN_POINT('',(15.,-1.5,14.5));
#1104=CARTESIAN_POINT('',(15.,-1.5,12.6));
#1105=CARTESIAN_POINT('',(15.,-5.,12.6));
#1106=CARTESIAN_POINT('',(15.,-5.,11.));
#1107=CARTESIAN_POINT('',(15.,-2.,8.));
#1108=CARTESIAN_POINT('',(15.,-2.,8.));
#1109=CARTESIAN_POINT('',(15.,2.5,12.6));
#1110=CARTESIAN_POINT('',(15.,2.5,12.6));
#1111=CARTESIAN_POINT('',(15.,2.5,14.5));
#1112=CARTESIAN_POINT('',(15.,2.5,14.5));
#1113=CARTESIAN_POINT('',(15.,15.8643181644257,14.5));
#1114=CARTESIAN_POINT('',(7.,-2.,8.));
#1115=CARTESIAN_POINT('',(11.,2.74465714111318,8.));
#1116=CARTESIAN_POINT('',(11.,0.744657141113179,8.));
#1117=CARTESIAN_POINT('',(7.,7.,8.));
#1118=CARTESIAN_POINT('',(7.,7.,8.));
#1119=CARTESIAN_POINT('',(7.,-2.,8.));
#1120=CARTESIAN_POINT('',(7.12701665379258,-2.,8.));
#1121=CARTESIAN_POINT('',(11.,-1.,8.));
#1122=CARTESIAN_POINT('',(7.,-1.,8.));
#1123=CARTESIAN_POINT('',(7.,-2.,8.));
#1124=CARTESIAN_POINT('',(7.,-5.,11.));
#1125=CARTESIAN_POINT('',(11.,-1.,7.));
#1126=CARTESIAN_POINT('',(7.,10.,13.));
#1127=CARTESIAN_POINT('',(7.,6.5,14.5));
#1128=CARTESIAN_POINT('',(7.,6.5,14.5));
#1129=CARTESIAN_POINT('',(7.,6.5,12.6));
#1130=CARTESIAN_POINT('',(7.,10.,12.6));
#1131=CARTESIAN_POINT('',(7.,10.,11.));
#1132=CARTESIAN_POINT('',(7.,-1.,13.));
#1133=CARTESIAN_POINT('',(7.,-1.,12.6));
#1134=CARTESIAN_POINT('',(7.,10.,12.6));
#1135=CARTESIAN_POINT('',(7.,2.5,12.6));
#1136=CARTESIAN_POINT('',(7.,2.5,14.5));
#1137=CARTESIAN_POINT('',(7.,2.5,14.5));
#1138=CARTESIAN_POINT('',(7.,15.8643181644257,14.5));
#1139=CARTESIAN_POINT('',(7.,10.,11.));
#1140=CARTESIAN_POINT('',(11.,2.5,14.5));
#1141=CARTESIAN_POINT('',(11.,2.5,14.2));
#1142=CARTESIAN_POINT('',(9.4,-1.16606055596466,12.6));
#1143=CARTESIAN_POINT('',(9.8,-1.31575680566778,13.));
#1144=CARTESIAN_POINT('',(11.,2.5,11.8));
#1145=CARTESIAN_POINT('',(10.2,-1.4191835884531,12.6));
#1146=CARTESIAN_POINT('',(11.,2.5,12.6));
#1147=CARTESIAN_POINT('',(11.,-1.5,12.6));
#1148=CARTESIAN_POINT('',(11.,-1.5,14.5));
#1149=CARTESIAN_POINT('',(11.,-1.5,14.5));
#1150=CARTESIAN_POINT('',(11.,2.5,14.5));
#1151=CARTESIAN_POINT('',(11.,2.5,16.6));
#1152=CARTESIAN_POINT('',(7.4,0.756440422583719,13.));
#1153=CARTESIAN_POINT('',(11.,2.5,9.4));
#1154=CARTESIAN_POINT('',(7.8,0.0999999999999977,12.6));
#1155=CARTESIAN_POINT('',(11.,2.5,12.6));
#1156=CARTESIAN_POINT('',(11.,-1.5,14.5));
#1157=CARTESIAN_POINT('',(11.,-1.5,12.6));
#1158=CARTESIAN_POINT('',(14.2,-1.5,12.6));
#1159=CARTESIAN_POINT('',(12.6,-1.5,12.6));
#1160=CARTESIAN_POINT('',(14.6,-1.5,13.));
#1161=CARTESIAN_POINT('',(14.6,-1.5,13.));
#1162=CARTESIAN_POINT('',(14.6,-1.5,13.));
#1163=CARTESIAN_POINT('',(11.,-1.5,14.5));
#1164=CARTESIAN_POINT('',(11.,-1.5,12.6));
#1165=CARTESIAN_POINT('',(11.8,-1.5,12.6));
#1166=CARTESIAN_POINT('',(12.2,-1.5,13.));
#1167=CARTESIAN_POINT('',(12.2,-1.5,13.));
#1168=CARTESIAN_POINT('',(12.6,-1.5,12.6));
#1169=CARTESIAN_POINT('',(11.,2.5,14.5));
#1170=CARTESIAN_POINT('',(11.,2.5,16.6));
#1171=CARTESIAN_POINT('',(14.6,4.24355957741627,13.));
#1172=CARTESIAN_POINT('',(11.,2.5,9.4));
#1173=CARTESIAN_POINT('',(14.2,4.9,12.6));
#1174=CARTESIAN_POINT('',(11.,2.5,12.6));
#1175=CARTESIAN_POINT('',(12.6,6.16606055596467,12.6));
#1176=CARTESIAN_POINT('',(11.,2.5,14.2));
#1177=CARTESIAN_POINT('',(12.2,6.31575680566778,13.));
#1178=CARTESIAN_POINT('',(11.,2.5,11.8));
#1179=CARTESIAN_POINT('',(11.8,6.41918358845308,12.6));
#1180=CARTESIAN_POINT('',(11.,2.5,12.6));
#1181=CARTESIAN_POINT('',(11.,6.5,12.6));
#1182=CARTESIAN_POINT('',(11.,6.5,14.5));
#1183=CARTESIAN_POINT('',(11.,6.5,14.5));
#1184=CARTESIAN_POINT('',(11.,2.5,14.5));
#1185=CARTESIAN_POINT('',(11.,6.5,14.5));
#1186=CARTESIAN_POINT('',(21.7209839748501,6.5,12.6));
#1187=CARTESIAN_POINT('',(10.2,6.5,12.6));
#1188=CARTESIAN_POINT('',(9.65,6.5,13.15));
#1189=CARTESIAN_POINT('',(9.8,6.5,13.));
#1190=CARTESIAN_POINT('',(11.15,6.5,14.35));
#1191=CARTESIAN_POINT('',(9.4,6.5,12.6));
#1192=CARTESIAN_POINT('',(21.7209839748501,6.5,12.6));
#1193=CARTESIAN_POINT('',(7.8,6.5,12.6));
#1194=CARTESIAN_POINT('',(8.45,6.5,11.95));
#1195=CARTESIAN_POINT('',(7.4,6.5,13.));
#1196=CARTESIAN_POINT('',(9.95,6.5,15.55));
#1197=CARTESIAN_POINT('',(11.,6.5,14.5));
#1198=CARTESIAN_POINT('',(11.,15.8643181644257,14.5));
#1199=CARTESIAN_POINT('',(11.,2.74465714111318,14.5));
#1200=CARTESIAN_POINT('',(13.,2.74465714111318,14.5));
#1201=CARTESIAN_POINT('',(11.,-1.,13.));
#1202=CARTESIAN_POINT('',(11.,-1.,12.6));
#1203=CARTESIAN_POINT('',(9.4,-4.66606055596466,12.6));
#1204=CARTESIAN_POINT('',(7.8,-3.4,12.6));
#1205=CARTESIAN_POINT('',(11.,-1.,12.6));
#1206=CARTESIAN_POINT('',(11.,-1.,12.6));
#1207=CARTESIAN_POINT('',(10.2,-4.9191835884531,12.6));
#1208=CARTESIAN_POINT('',(11.,-1.,11.8));
#1209=CARTESIAN_POINT('',(9.8,-4.81575680566778,13.));
#1210=CARTESIAN_POINT('',(11.,-1.,14.2));
#1211=CARTESIAN_POINT('',(21.7209839748501,8.00008058547834,12.6));
#1212=CARTESIAN_POINT('',(10.2,8.00008058547834,12.6));
#1213=CARTESIAN_POINT('',(11.8,8.00008058547834,12.6));
#1214=CARTESIAN_POINT('',(21.7209839748501,8.00008058547834,12.6));
#1215=CARTESIAN_POINT('',(7.8,8.00008058547834,12.6));
#1216=CARTESIAN_POINT('',(9.4,8.00008058547834,12.6));
#1217=CARTESIAN_POINT('',(21.7209839748501,8.00008058547834,12.6));
#1218=CARTESIAN_POINT('',(12.6,8.00008058547834,12.6));
#1219=CARTESIAN_POINT('',(14.2,8.00008058547834,12.6));
#1220=CARTESIAN_POINT('',(11.,7.50916650509436,12.6));
#1221=CARTESIAN_POINT('',(14.2,7.50916650509436,12.6));
#1222=CARTESIAN_POINT('',(12.6,7.50916650509436,12.6));
#1223=CARTESIAN_POINT('',(11.,7.50916650509436,12.6));
#1224=CARTESIAN_POINT('',(9.4,7.50916650509436,12.6));
#1225=CARTESIAN_POINT('',(7.8,7.50916650509436,12.6));
#1226=CARTESIAN_POINT('',(11.,7.50916650509436,12.6));
#1227=CARTESIAN_POINT('',(11.8,7.50916650509436,12.6));
#1228=CARTESIAN_POINT('',(10.2,7.50916650509436,12.6));
#1229=CARTESIAN_POINT('',(11.,2.74465714111318,14.5));
#1230=CARTESIAN_POINT('',(7.8,8.00008058547834,12.6));
#1231=CARTESIAN_POINT('',(7.4,10.,13.));
#1232=CARTESIAN_POINT('',(7.,10.,12.6));
#1233=CARTESIAN_POINT('',(10.2,8.00008058547834,12.6));
#1234=CARTESIAN_POINT('',(9.8,10.,13.));
#1235=CARTESIAN_POINT('',(9.8,10.,13.));
#1236=CARTESIAN_POINT('',(12.2,10.,13.));
#1237=CARTESIAN_POINT('',(12.2,6.41918358845308,13.));
#1238=CARTESIAN_POINT('',(12.2,10.,13.));
#1239=CARTESIAN_POINT('',(7.8,7.50916650509436,12.6));
#1240=CARTESIAN_POINT('',(7.4,10.,13.));
#1241=CARTESIAN_POINT('',(7.40000000000271,-1.00000441423588,13.));
#1242=CARTESIAN_POINT('',(7.40000000000271,-1.00000441423588,13.));
#1243=CARTESIAN_POINT('',(7.40000051193017,-1.8350023144793,12.9999994880725));
#1244=CARTESIAN_POINT('',(7.54864480112322,-2.64593440336968,12.8513551988768));
#1245=CARTESIAN_POINT('',(7.8,-3.4,12.6));
#1246=CARTESIAN_POINT('',(7.,10.,12.6));
#1247=CARTESIAN_POINT('',(7.4,-1.,13.));
#1248=CARTESIAN_POINT('',(11.,-1.,12.6));
#1249=CARTESIAN_POINT('',(10.2,7.50916650509436,12.6));
#1250=CARTESIAN_POINT('',(9.8,10.,13.));
#1251=CARTESIAN_POINT('',(9.8,10.,13.));
#1252=CARTESIAN_POINT('',(12.6,7.50916650509436,12.6));
#1253=CARTESIAN_POINT('',(12.2,10.,13.));
#1254=CARTESIAN_POINT('',(12.2,10.,13.));
#1255=CARTESIAN_POINT('',(14.6,10.,13.));
#1256=CARTESIAN_POINT('',(14.6,-5.,13.));
#1257=CARTESIAN_POINT('',(14.6,10.,13.));
#1258=CARTESIAN_POINT('',(11.,6.,13.));
#1259=CARTESIAN_POINT('',(15.,6.,12.6));
#1260=CARTESIAN_POINT('',(14.6,6.00000441758516,13.));
#1261=CARTESIAN_POINT('',(14.2,8.4,12.6));
#1262=CARTESIAN_POINT('',(14.4517048890567,7.64488533283001,12.8517048890567));
#1263=CARTESIAN_POINT('',(14.599999486141,6.83751523007895,12.999999486141));
#1264=CARTESIAN_POINT('',(14.5999999999986,6.000004417585,12.9999999999986));
#1265=CARTESIAN_POINT('',(14.6,10.,13.));
#1266=CARTESIAN_POINT('',(14.6,6.,13.));
#1267=CARTESIAN_POINT('',(14.6,10.,13.));
#1268=MECHANICAL_DESIGN_GEOMETRIC_PRESENTATION_REPRESENTATION('',(#751),
#1269);
#1269=(
GEOMETRIC_REPRESENTATION_CONTEXT(3)
GLOBAL_UNCERTAINTY_ASSIGNED_CONTEXT((#1270))
GLOBAL_UNIT_ASSIGNED_CONTEXT((#1273,#1272,#1271))
REPRESENTATION_CONTEXT('BTN08M4','TOP_LEVEL_ASSEMBLY_PART')
);
#1270=UNCERTAINTY_MEASURE_WITH_UNIT(LENGTH_MEASURE(0.005),#1273,
'DISTANCE_ACCURACY_VALUE','Maximum Tolerance applied to model');
#1271=(
NAMED_UNIT(*)
SI_UNIT($,.STERADIAN.)
SOLID_ANGLE_UNIT()
);
#1272=(
NAMED_UNIT(*)
PLANE_ANGLE_UNIT()
SI_UNIT($,.RADIAN.)
);
#1273=(
LENGTH_UNIT()
NAMED_UNIT(*)
SI_UNIT(.MILLI.,.METRE.)
);
#1274=PRODUCT_DEFINITION_SHAPE('','',#1275);
#1275=PRODUCT_DEFINITION('','',#1277,#1276);
#1276=PRODUCT_DEFINITION_CONTEXT('',#1283,'design');
#1277=PRODUCT_DEFINITION_FORMATION_WITH_SPECIFIED_SOURCE('','',#1279,
 .NOT_KNOWN.);
#1278=PRODUCT_RELATED_PRODUCT_CATEGORY('','',(#1279));
#1279=PRODUCT('BTN08M4','BTN08M4','BTN08M4',(#1281));
#1280=PRODUCT_CATEGORY('','');
#1281=PRODUCT_CONTEXT('',#1283,'mechanical');
#1282=APPLICATION_PROTOCOL_DEFINITION('international standard',
'automotive_design',2010,#1283);
#1283=APPLICATION_CONTEXT(
'core data for automotive mechanical design processes');
ENDSEC;
END-ISO-10303-21;
