ISO-10303-21;
HEADER;
/* Generated by software containing ST-Developer
 * from STEP Tools, Inc. (www.steptools.com) 
 */

FILE_DESCRIPTION(
/* description */ (''),
/* implementation_level */ '2;1');

FILE_NAME(
/* name */ 'COUPLE FLANGE.stp',
/* time_stamp */ '2025-07-15T16:29:32+07:00',
/* author */ ('Satria M. Nur'),
/* organization */ (''),
/* preprocessor_version */ 'ST-DEVELOPER v20',
/* originating_system */ 'Autodesk Inventor 2025',
/* authorisation */ '');

FILE_SCHEMA (('AUTOMOTIVE_DESIGN { 1 0 10303 214 3 1 1 }'));
ENDSEC;

DATA;
#10=MECHANICAL_DESIGN_GEOMETRIC_PRESENTATION_REPRESENTATION('',(#13),#773);
#11=SHAPE_REPRESENTATION_RELATIONSHIP('SRR','None',#780,#12);
#12=ADVANCED_BREP_SHAPE_REPRESENTATION('',(#14),#772);
#13=STYLED_ITEM('',(#789),#14);
#14=MANIFOLD_SOLID_BREP('Solid1',#357);
#15=PLANE('',#387);
#16=PLANE('',#399);
#17=PLANE('',#408);
#18=FACE_BOUND('',#94,.T.);
#19=FACE_BOUND('',#96,.T.);
#20=FACE_BOUND('',#97,.T.);
#21=FACE_BOUND('',#98,.T.);
#22=FACE_BOUND('',#99,.T.);
#23=FACE_BOUND('',#100,.T.);
#24=FACE_BOUND('',#103,.T.);
#25=FACE_BOUND('',#105,.T.);
#26=FACE_BOUND('',#106,.T.);
#27=FACE_BOUND('',#107,.T.);
#28=FACE_BOUND('',#108,.T.);
#29=FACE_BOUND('',#109,.T.);
#30=FACE_BOUND('',#112,.T.);
#31=B_SPLINE_CURVE_WITH_KNOTS('',3,(#543,#544,#545,#546,#547,#548,#549,
#550,#551,#552),.UNSPECIFIED.,.F.,.F.,(4,2,2,2,4),(0.200265149038981,0.250249572016604,
0.300233994994228,0.350382146536095,0.400530298077962),.UNSPECIFIED.);
#32=B_SPLINE_CURVE_WITH_KNOTS('',3,(#554,#555,#556,#557,#558,#559,#560,
#561,#562,#563),.UNSPECIFIED.,.F.,.F.,(4,2,2,2,4),(0.400530298077962,0.450678449619829,
0.500826601161696,0.550811024139319,0.600795447116943),.UNSPECIFIED.);
#33=B_SPLINE_CURVE_WITH_KNOTS('',3,(#566,#567,#568,#569,#570,#571,#572,
#573,#574,#575),.UNSPECIFIED.,.F.,.F.,(4,2,2,2,4),(0.600795447116943,0.650779870094566,
0.70076429307219,0.750912444614057,0.801060596155924),.UNSPECIFIED.);
#34=B_SPLINE_CURVE_WITH_KNOTS('',3,(#576,#577,#578,#579,#580,#581,#582,
#583,#584,#585),.UNSPECIFIED.,.F.,.F.,(4,2,2,2,4),(0.,0.0501481515418671,
0.100296303083734,0.150280726061358,0.200265149038981),.UNSPECIFIED.);
#35=B_SPLINE_CURVE_WITH_KNOTS('',3,(#588,#589,#590,#591,#592,#593,#594,
#595,#596,#597,#598,#599,#600,#601,#602,#603,#604,#605),.UNSPECIFIED.,.F.,
 .F.,(4,2,2,2,2,2,2,2,4),(0.,0.0501481515418671,0.100296303083734,0.150280726061358,
0.200265149038981,0.250249572016604,0.300233994994228,0.350382146536095,
0.400530298077962),.UNSPECIFIED.);
#36=B_SPLINE_CURVE_WITH_KNOTS('',3,(#606,#607,#608,#609,#610,#611,#612,
#613,#614,#615,#616,#617,#618,#619,#620,#621,#622,#623),.UNSPECIFIED.,.F.,
 .F.,(4,2,2,2,2,2,2,2,4),(0.400530298077962,0.450678449619829,0.500826601161696,
0.550811024139319,0.600795447116943,0.650779870094566,0.70076429307219,
0.750912444614057,0.801060596155924),.UNSPECIFIED.);
#37=B_SPLINE_CURVE_WITH_KNOTS('',3,(#647,#648,#649,#650,#651,#652,#653,
#654,#655,#656),.UNSPECIFIED.,.F.,.F.,(4,2,2,2,4),(0.196855479787006,0.246065304374855,
0.295275128962704,0.344493044268358,0.393710959574012),.UNSPECIFIED.);
#38=B_SPLINE_CURVE_WITH_KNOTS('',3,(#658,#659,#660,#661,#662,#663,#664,
#665,#666,#667),.UNSPECIFIED.,.F.,.F.,(4,2,2,2,4),(0.393710959574012,0.442928874879666,
0.492146790185321,0.541356614773169,0.590566439361018),.UNSPECIFIED.);
#39=B_SPLINE_CURVE_WITH_KNOTS('',3,(#670,#671,#672,#673,#674,#675,#676,
#677,#678,#679),.UNSPECIFIED.,.F.,.F.,(4,2,2,2,4),(0.590566439361018,0.639776263948867,
0.688986088536716,0.73820400384237,0.787421919148024),.UNSPECIFIED.);
#40=B_SPLINE_CURVE_WITH_KNOTS('',3,(#680,#681,#682,#683,#684,#685,#686,
#687,#688,#689),.UNSPECIFIED.,.F.,.F.,(4,2,2,2,4),(0.,0.0492179153056542,
0.0984358306113084,0.147645655199157,0.196855479787006),.UNSPECIFIED.);
#41=B_SPLINE_CURVE_WITH_KNOTS('',3,(#692,#693,#694,#695,#696,#697,#698,
#699,#700,#701,#702,#703,#704,#705,#706,#707,#708,#709),.UNSPECIFIED.,.F.,
 .F.,(4,2,2,2,2,2,2,2,4),(0.,0.0492179153056542,0.0984358306113085,0.147645655199157,
0.196855479787006,0.246065304374855,0.295275128962704,0.344493044268358,
0.393710959574012),.UNSPECIFIED.);
#42=B_SPLINE_CURVE_WITH_KNOTS('',3,(#710,#711,#712,#713,#714,#715,#716,
#717,#718,#719,#720,#721,#722,#723,#724,#725,#726,#727),.UNSPECIFIED.,.F.,
 .F.,(4,2,2,2,2,2,2,2,4),(0.393710959574012,0.442928874879666,0.492146790185321,
0.541356614773169,0.590566439361018,0.639776263948867,0.688986088536716,
0.73820400384237,0.787421919148024),.UNSPECIFIED.);
#43=LINE('',#541,#54);
#44=LINE('',#564,#55);
#45=LINE('',#645,#56);
#46=LINE('',#668,#57);
#47=LINE('',#754,#58);
#48=LINE('',#759,#59);
#49=LINE('',#761,#60);
#50=LINE('',#763,#61);
#51=LINE('',#765,#62);
#52=LINE('',#767,#63);
#53=LINE('',#769,#64);
#54=VECTOR('',#441,2.5);
#55=VECTOR('',#442,2.5);
#56=VECTOR('',#467,5.);
#57=VECTOR('',#468,5.);
#58=VECTOR('',#503,11.);
#59=VECTOR('',#512,1.3);
#60=VECTOR('',#515,1.3);
#61=VECTOR('',#518,1.5);
#62=VECTOR('',#521,1.5);
#63=VECTOR('',#524,1.5);
#64=VECTOR('',#527,1.5);
#65=CYLINDRICAL_SURFACE('',#385,2.5);
#66=CYLINDRICAL_SURFACE('',#397,5.);
#67=CYLINDRICAL_SURFACE('',#415,11.);
#68=CYLINDRICAL_SURFACE('',#419,1.3);
#69=CYLINDRICAL_SURFACE('',#420,1.3);
#70=CYLINDRICAL_SURFACE('',#421,1.5);
#71=CYLINDRICAL_SURFACE('',#422,1.5);
#72=CYLINDRICAL_SURFACE('',#423,1.5);
#73=CYLINDRICAL_SURFACE('',#424,1.5);
#74=FACE_OUTER_BOUND('',#92,.T.);
#75=FACE_OUTER_BOUND('',#93,.T.);
#76=FACE_OUTER_BOUND('',#95,.T.);
#77=FACE_OUTER_BOUND('',#101,.T.);
#78=FACE_OUTER_BOUND('',#102,.T.);
#79=FACE_OUTER_BOUND('',#104,.T.);
#80=FACE_OUTER_BOUND('',#110,.T.);
#81=FACE_OUTER_BOUND('',#111,.T.);
#82=FACE_OUTER_BOUND('',#113,.T.);
#83=FACE_OUTER_BOUND('',#114,.T.);
#84=FACE_OUTER_BOUND('',#115,.T.);
#85=FACE_OUTER_BOUND('',#116,.T.);
#86=FACE_OUTER_BOUND('',#117,.T.);
#87=FACE_OUTER_BOUND('',#118,.T.);
#88=FACE_OUTER_BOUND('',#119,.T.);
#89=FACE_OUTER_BOUND('',#120,.T.);
#90=FACE_OUTER_BOUND('',#121,.T.);
#91=FACE_OUTER_BOUND('',#122,.T.);
#92=EDGE_LOOP('',(#233,#234,#235,#236,#237));
#93=EDGE_LOOP('',(#238,#239,#240,#241,#242,#243,#244,#245,#246,#247,#248));
#94=EDGE_LOOP('',(#249,#250));
#95=EDGE_LOOP('',(#251));
#96=EDGE_LOOP('',(#252));
#97=EDGE_LOOP('',(#253));
#98=EDGE_LOOP('',(#254));
#99=EDGE_LOOP('',(#255));
#100=EDGE_LOOP('',(#256));
#101=EDGE_LOOP('',(#257,#258,#259,#260));
#102=EDGE_LOOP('',(#261,#262,#263,#264,#265,#266,#267,#268,#269,#270));
#103=EDGE_LOOP('',(#271,#272));
#104=EDGE_LOOP('',(#273));
#105=EDGE_LOOP('',(#274));
#106=EDGE_LOOP('',(#275));
#107=EDGE_LOOP('',(#276));
#108=EDGE_LOOP('',(#277));
#109=EDGE_LOOP('',(#278));
#110=EDGE_LOOP('',(#279,#280,#281,#282));
#111=EDGE_LOOP('',(#283));
#112=EDGE_LOOP('',(#284));
#113=EDGE_LOOP('',(#285,#286,#287,#288));
#114=EDGE_LOOP('',(#289,#290,#291,#292));
#115=EDGE_LOOP('',(#293,#294,#295,#296));
#116=EDGE_LOOP('',(#297,#298,#299,#300));
#117=EDGE_LOOP('',(#301,#302,#303,#304,#305,#306,#307,#308));
#118=EDGE_LOOP('',(#309,#310,#311,#312,#313,#314,#315,#316));
#119=EDGE_LOOP('',(#317,#318,#319,#320));
#120=EDGE_LOOP('',(#321,#322,#323,#324));
#121=EDGE_LOOP('',(#325,#326,#327,#328));
#122=EDGE_LOOP('',(#329,#330,#331,#332));
#123=CIRCLE('',#381,2.65);
#124=CIRCLE('',#382,0.15);
#125=CIRCLE('',#383,2.5);
#126=CIRCLE('',#384,2.5);
#127=CIRCLE('',#386,2.5);
#128=CIRCLE('',#388,10.7);
#129=CIRCLE('',#389,1.5);
#130=CIRCLE('',#390,1.5);
#131=CIRCLE('',#391,1.5);
#132=CIRCLE('',#392,1.5);
#133=CIRCLE('',#394,5.15);
#134=CIRCLE('',#395,0.15);
#135=CIRCLE('',#396,5.);
#136=CIRCLE('',#398,5.);
#137=CIRCLE('',#400,10.7);
#138=CIRCLE('',#401,1.5);
#139=CIRCLE('',#402,1.5);
#140=CIRCLE('',#403,1.5);
#141=CIRCLE('',#404,1.5);
#142=CIRCLE('',#406,2.65);
#143=CIRCLE('',#407,0.15);
#144=CIRCLE('',#409,4.85);
#145=CIRCLE('',#411,0.15);
#146=CIRCLE('',#413,0.3);
#147=CIRCLE('',#414,11.);
#148=CIRCLE('',#416,11.);
#149=CIRCLE('',#418,0.3);
#150=VERTEX_POINT('',#530);
#151=VERTEX_POINT('',#532);
#152=VERTEX_POINT('',#534);
#153=VERTEX_POINT('',#538);
#154=VERTEX_POINT('',#540);
#155=VERTEX_POINT('',#542);
#156=VERTEX_POINT('',#553);
#157=VERTEX_POINT('',#565);
#158=VERTEX_POINT('',#586);
#159=VERTEX_POINT('',#587);
#160=VERTEX_POINT('',#625);
#161=VERTEX_POINT('',#627);
#162=VERTEX_POINT('',#629);
#163=VERTEX_POINT('',#631);
#164=VERTEX_POINT('',#633);
#165=VERTEX_POINT('',#636);
#166=VERTEX_POINT('',#638);
#167=VERTEX_POINT('',#642);
#168=VERTEX_POINT('',#644);
#169=VERTEX_POINT('',#646);
#170=VERTEX_POINT('',#657);
#171=VERTEX_POINT('',#669);
#172=VERTEX_POINT('',#690);
#173=VERTEX_POINT('',#691);
#174=VERTEX_POINT('',#729);
#175=VERTEX_POINT('',#731);
#176=VERTEX_POINT('',#733);
#177=VERTEX_POINT('',#735);
#178=VERTEX_POINT('',#737);
#179=VERTEX_POINT('',#740);
#180=VERTEX_POINT('',#744);
#181=VERTEX_POINT('',#749);
#182=VERTEX_POINT('',#753);
#183=EDGE_CURVE('',#150,#150,#123,.T.);
#184=EDGE_CURVE('',#150,#151,#124,.T.);
#185=EDGE_CURVE('',#151,#152,#125,.T.);
#186=EDGE_CURVE('',#152,#151,#126,.T.);
#187=EDGE_CURVE('',#153,#153,#127,.T.);
#188=EDGE_CURVE('',#153,#154,#43,.T.);
#189=EDGE_CURVE('',#154,#155,#31,.T.);
#190=EDGE_CURVE('',#155,#156,#32,.T.);
#191=EDGE_CURVE('',#156,#152,#44,.T.);
#192=EDGE_CURVE('',#156,#157,#33,.T.);
#193=EDGE_CURVE('',#157,#154,#34,.T.);
#194=EDGE_CURVE('',#158,#159,#35,.T.);
#195=EDGE_CURVE('',#159,#158,#36,.T.);
#196=EDGE_CURVE('',#160,#160,#128,.T.);
#197=EDGE_CURVE('',#161,#161,#129,.T.);
#198=EDGE_CURVE('',#162,#162,#130,.T.);
#199=EDGE_CURVE('',#163,#163,#131,.T.);
#200=EDGE_CURVE('',#164,#164,#132,.T.);
#201=EDGE_CURVE('',#165,#165,#133,.T.);
#202=EDGE_CURVE('',#165,#166,#134,.T.);
#203=EDGE_CURVE('',#166,#166,#135,.T.);
#204=EDGE_CURVE('',#167,#167,#136,.T.);
#205=EDGE_CURVE('',#167,#168,#45,.T.);
#206=EDGE_CURVE('',#168,#169,#37,.T.);
#207=EDGE_CURVE('',#169,#170,#38,.T.);
#208=EDGE_CURVE('',#170,#166,#46,.T.);
#209=EDGE_CURVE('',#170,#171,#39,.T.);
#210=EDGE_CURVE('',#171,#168,#40,.T.);
#211=EDGE_CURVE('',#172,#173,#41,.T.);
#212=EDGE_CURVE('',#173,#172,#42,.T.);
#213=EDGE_CURVE('',#174,#174,#137,.T.);
#214=EDGE_CURVE('',#175,#175,#138,.T.);
#215=EDGE_CURVE('',#176,#176,#139,.T.);
#216=EDGE_CURVE('',#177,#177,#140,.T.);
#217=EDGE_CURVE('',#178,#178,#141,.T.);
#218=EDGE_CURVE('',#179,#179,#142,.T.);
#219=EDGE_CURVE('',#179,#153,#143,.T.);
#220=EDGE_CURVE('',#180,#180,#144,.T.);
#221=EDGE_CURVE('',#180,#167,#145,.T.);
#222=EDGE_CURVE('',#160,#181,#146,.T.);
#223=EDGE_CURVE('',#181,#181,#147,.T.);
#224=EDGE_CURVE('',#181,#182,#47,.T.);
#225=EDGE_CURVE('',#182,#182,#148,.T.);
#226=EDGE_CURVE('',#182,#174,#149,.T.);
#227=EDGE_CURVE('',#169,#159,#48,.T.);
#228=EDGE_CURVE('',#155,#173,#49,.T.);
#229=EDGE_CURVE('',#175,#161,#50,.T.);
#230=EDGE_CURVE('',#176,#162,#51,.T.);
#231=EDGE_CURVE('',#177,#163,#52,.T.);
#232=EDGE_CURVE('',#178,#164,#53,.T.);
#233=ORIENTED_EDGE('',*,*,#183,.T.);
#234=ORIENTED_EDGE('',*,*,#184,.T.);
#235=ORIENTED_EDGE('',*,*,#185,.T.);
#236=ORIENTED_EDGE('',*,*,#186,.T.);
#237=ORIENTED_EDGE('',*,*,#184,.F.);
#238=ORIENTED_EDGE('',*,*,#187,.F.);
#239=ORIENTED_EDGE('',*,*,#188,.T.);
#240=ORIENTED_EDGE('',*,*,#189,.T.);
#241=ORIENTED_EDGE('',*,*,#190,.T.);
#242=ORIENTED_EDGE('',*,*,#191,.T.);
#243=ORIENTED_EDGE('',*,*,#185,.F.);
#244=ORIENTED_EDGE('',*,*,#186,.F.);
#245=ORIENTED_EDGE('',*,*,#191,.F.);
#246=ORIENTED_EDGE('',*,*,#192,.T.);
#247=ORIENTED_EDGE('',*,*,#193,.T.);
#248=ORIENTED_EDGE('',*,*,#188,.F.);
#249=ORIENTED_EDGE('',*,*,#194,.T.);
#250=ORIENTED_EDGE('',*,*,#195,.T.);
#251=ORIENTED_EDGE('',*,*,#196,.F.);
#252=ORIENTED_EDGE('',*,*,#197,.T.);
#253=ORIENTED_EDGE('',*,*,#198,.T.);
#254=ORIENTED_EDGE('',*,*,#199,.T.);
#255=ORIENTED_EDGE('',*,*,#200,.T.);
#256=ORIENTED_EDGE('',*,*,#183,.F.);
#257=ORIENTED_EDGE('',*,*,#201,.T.);
#258=ORIENTED_EDGE('',*,*,#202,.T.);
#259=ORIENTED_EDGE('',*,*,#203,.T.);
#260=ORIENTED_EDGE('',*,*,#202,.F.);
#261=ORIENTED_EDGE('',*,*,#204,.F.);
#262=ORIENTED_EDGE('',*,*,#205,.T.);
#263=ORIENTED_EDGE('',*,*,#206,.T.);
#264=ORIENTED_EDGE('',*,*,#207,.T.);
#265=ORIENTED_EDGE('',*,*,#208,.T.);
#266=ORIENTED_EDGE('',*,*,#203,.F.);
#267=ORIENTED_EDGE('',*,*,#208,.F.);
#268=ORIENTED_EDGE('',*,*,#209,.T.);
#269=ORIENTED_EDGE('',*,*,#210,.T.);
#270=ORIENTED_EDGE('',*,*,#205,.F.);
#271=ORIENTED_EDGE('',*,*,#211,.T.);
#272=ORIENTED_EDGE('',*,*,#212,.T.);
#273=ORIENTED_EDGE('',*,*,#213,.F.);
#274=ORIENTED_EDGE('',*,*,#214,.T.);
#275=ORIENTED_EDGE('',*,*,#215,.T.);
#276=ORIENTED_EDGE('',*,*,#216,.T.);
#277=ORIENTED_EDGE('',*,*,#217,.T.);
#278=ORIENTED_EDGE('',*,*,#201,.F.);
#279=ORIENTED_EDGE('',*,*,#218,.T.);
#280=ORIENTED_EDGE('',*,*,#219,.T.);
#281=ORIENTED_EDGE('',*,*,#187,.T.);
#282=ORIENTED_EDGE('',*,*,#219,.F.);
#283=ORIENTED_EDGE('',*,*,#220,.F.);
#284=ORIENTED_EDGE('',*,*,#218,.F.);
#285=ORIENTED_EDGE('',*,*,#220,.T.);
#286=ORIENTED_EDGE('',*,*,#221,.T.);
#287=ORIENTED_EDGE('',*,*,#204,.T.);
#288=ORIENTED_EDGE('',*,*,#221,.F.);
#289=ORIENTED_EDGE('',*,*,#196,.T.);
#290=ORIENTED_EDGE('',*,*,#222,.T.);
#291=ORIENTED_EDGE('',*,*,#223,.T.);
#292=ORIENTED_EDGE('',*,*,#222,.F.);
#293=ORIENTED_EDGE('',*,*,#223,.F.);
#294=ORIENTED_EDGE('',*,*,#224,.T.);
#295=ORIENTED_EDGE('',*,*,#225,.F.);
#296=ORIENTED_EDGE('',*,*,#224,.F.);
#297=ORIENTED_EDGE('',*,*,#225,.T.);
#298=ORIENTED_EDGE('',*,*,#226,.T.);
#299=ORIENTED_EDGE('',*,*,#213,.T.);
#300=ORIENTED_EDGE('',*,*,#226,.F.);
#301=ORIENTED_EDGE('',*,*,#210,.F.);
#302=ORIENTED_EDGE('',*,*,#209,.F.);
#303=ORIENTED_EDGE('',*,*,#207,.F.);
#304=ORIENTED_EDGE('',*,*,#227,.T.);
#305=ORIENTED_EDGE('',*,*,#194,.F.);
#306=ORIENTED_EDGE('',*,*,#195,.F.);
#307=ORIENTED_EDGE('',*,*,#227,.F.);
#308=ORIENTED_EDGE('',*,*,#206,.F.);
#309=ORIENTED_EDGE('',*,*,#193,.F.);
#310=ORIENTED_EDGE('',*,*,#192,.F.);
#311=ORIENTED_EDGE('',*,*,#190,.F.);
#312=ORIENTED_EDGE('',*,*,#228,.T.);
#313=ORIENTED_EDGE('',*,*,#211,.F.);
#314=ORIENTED_EDGE('',*,*,#212,.F.);
#315=ORIENTED_EDGE('',*,*,#228,.F.);
#316=ORIENTED_EDGE('',*,*,#189,.F.);
#317=ORIENTED_EDGE('',*,*,#214,.F.);
#318=ORIENTED_EDGE('',*,*,#229,.T.);
#319=ORIENTED_EDGE('',*,*,#197,.F.);
#320=ORIENTED_EDGE('',*,*,#229,.F.);
#321=ORIENTED_EDGE('',*,*,#215,.F.);
#322=ORIENTED_EDGE('',*,*,#230,.T.);
#323=ORIENTED_EDGE('',*,*,#198,.F.);
#324=ORIENTED_EDGE('',*,*,#230,.F.);
#325=ORIENTED_EDGE('',*,*,#216,.F.);
#326=ORIENTED_EDGE('',*,*,#231,.T.);
#327=ORIENTED_EDGE('',*,*,#199,.F.);
#328=ORIENTED_EDGE('',*,*,#231,.F.);
#329=ORIENTED_EDGE('',*,*,#217,.F.);
#330=ORIENTED_EDGE('',*,*,#232,.T.);
#331=ORIENTED_EDGE('',*,*,#200,.F.);
#332=ORIENTED_EDGE('',*,*,#232,.F.);
#333=TOROIDAL_SURFACE('',#380,2.65,0.15);
#334=TOROIDAL_SURFACE('',#393,5.15,0.15);
#335=TOROIDAL_SURFACE('',#405,2.65,0.15);
#336=TOROIDAL_SURFACE('',#410,4.85,0.15);
#337=TOROIDAL_SURFACE('',#412,10.7,0.3);
#338=TOROIDAL_SURFACE('',#417,10.7,0.3);
#339=ADVANCED_FACE('',(#74),#333,.T.);
#340=ADVANCED_FACE('',(#75,#18),#65,.F.);
#341=ADVANCED_FACE('',(#76,#19,#20,#21,#22,#23),#15,.T.);
#342=ADVANCED_FACE('',(#77),#334,.F.);
#343=ADVANCED_FACE('',(#78,#24),#66,.T.);
#344=ADVANCED_FACE('',(#79,#25,#26,#27,#28,#29),#16,.F.);
#345=ADVANCED_FACE('',(#80),#335,.T.);
#346=ADVANCED_FACE('',(#81,#30),#17,.T.);
#347=ADVANCED_FACE('',(#82),#336,.T.);
#348=ADVANCED_FACE('',(#83),#337,.T.);
#349=ADVANCED_FACE('',(#84),#67,.T.);
#350=ADVANCED_FACE('',(#85),#338,.T.);
#351=ADVANCED_FACE('',(#86),#68,.F.);
#352=ADVANCED_FACE('',(#87),#69,.F.);
#353=ADVANCED_FACE('',(#88),#70,.F.);
#354=ADVANCED_FACE('',(#89),#71,.F.);
#355=ADVANCED_FACE('',(#90),#72,.F.);
#356=ADVANCED_FACE('',(#91),#73,.F.);
#357=CLOSED_SHELL('',(#339,#340,#341,#342,#343,#344,#345,#346,#347,#348,
#349,#350,#351,#352,#353,#354,#355,#356));
#358=DERIVED_UNIT_ELEMENT(#361,1.);
#359=DERIVED_UNIT_ELEMENT(#775,-3.);
#360=DIMENSIONAL_EXPONENTS(0.,1.,0.,0.,0.,0.,0.);
#361=(
CONVERSION_BASED_UNIT('gram',#363)
MASS_UNIT()
NAMED_UNIT(#360)
);
#362=(
MASS_UNIT()
NAMED_UNIT(*)
SI_UNIT(.KILO.,.GRAM.)
);
#363=MASS_MEASURE_WITH_UNIT(MASS_MEASURE(0.001),#362);
#364=DERIVED_UNIT((#358,#359));
#365=MEASURE_REPRESENTATION_ITEM('density measure',
POSITIVE_RATIO_MEASURE(1.),#364);
#366=PROPERTY_DEFINITION_REPRESENTATION(#371,#368);
#367=PROPERTY_DEFINITION_REPRESENTATION(#372,#369);
#368=REPRESENTATION('material name',(#370),#772);
#369=REPRESENTATION('density',(#365),#772);
#370=DESCRIPTIVE_REPRESENTATION_ITEM('Generic','Generic');
#371=PROPERTY_DEFINITION('material property','material name',#782);
#372=PROPERTY_DEFINITION('material property','density of part',#782);
#373=DATE_TIME_ROLE('creation_date');
#374=APPLIED_DATE_AND_TIME_ASSIGNMENT(#375,#373,(#782));
#375=DATE_AND_TIME(#376,#377);
#376=CALENDAR_DATE(2025,12,3);
#377=LOCAL_TIME(0,0,0.,#378);
#378=COORDINATED_UNIVERSAL_TIME_OFFSET(0,0,.BEHIND.);
#379=AXIS2_PLACEMENT_3D('',#528,#425,#426);
#380=AXIS2_PLACEMENT_3D('',#529,#427,#428);
#381=AXIS2_PLACEMENT_3D('',#531,#429,#430);
#382=AXIS2_PLACEMENT_3D('',#533,#431,#432);
#383=AXIS2_PLACEMENT_3D('',#535,#433,#434);
#384=AXIS2_PLACEMENT_3D('',#536,#435,#436);
#385=AXIS2_PLACEMENT_3D('',#537,#437,#438);
#386=AXIS2_PLACEMENT_3D('',#539,#439,#440);
#387=AXIS2_PLACEMENT_3D('',#624,#443,#444);
#388=AXIS2_PLACEMENT_3D('',#626,#445,#446);
#389=AXIS2_PLACEMENT_3D('',#628,#447,#448);
#390=AXIS2_PLACEMENT_3D('',#630,#449,#450);
#391=AXIS2_PLACEMENT_3D('',#632,#451,#452);
#392=AXIS2_PLACEMENT_3D('',#634,#453,#454);
#393=AXIS2_PLACEMENT_3D('',#635,#455,#456);
#394=AXIS2_PLACEMENT_3D('',#637,#457,#458);
#395=AXIS2_PLACEMENT_3D('',#639,#459,#460);
#396=AXIS2_PLACEMENT_3D('',#640,#461,#462);
#397=AXIS2_PLACEMENT_3D('',#641,#463,#464);
#398=AXIS2_PLACEMENT_3D('',#643,#465,#466);
#399=AXIS2_PLACEMENT_3D('',#728,#469,#470);
#400=AXIS2_PLACEMENT_3D('',#730,#471,#472);
#401=AXIS2_PLACEMENT_3D('',#732,#473,#474);
#402=AXIS2_PLACEMENT_3D('',#734,#475,#476);
#403=AXIS2_PLACEMENT_3D('',#736,#477,#478);
#404=AXIS2_PLACEMENT_3D('',#738,#479,#480);
#405=AXIS2_PLACEMENT_3D('',#739,#481,#482);
#406=AXIS2_PLACEMENT_3D('',#741,#483,#484);
#407=AXIS2_PLACEMENT_3D('',#742,#485,#486);
#408=AXIS2_PLACEMENT_3D('',#743,#487,#488);
#409=AXIS2_PLACEMENT_3D('',#745,#489,#490);
#410=AXIS2_PLACEMENT_3D('',#746,#491,#492);
#411=AXIS2_PLACEMENT_3D('',#747,#493,#494);
#412=AXIS2_PLACEMENT_3D('',#748,#495,#496);
#413=AXIS2_PLACEMENT_3D('',#750,#497,#498);
#414=AXIS2_PLACEMENT_3D('',#751,#499,#500);
#415=AXIS2_PLACEMENT_3D('',#752,#501,#502);
#416=AXIS2_PLACEMENT_3D('',#755,#504,#505);
#417=AXIS2_PLACEMENT_3D('',#756,#506,#507);
#418=AXIS2_PLACEMENT_3D('',#757,#508,#509);
#419=AXIS2_PLACEMENT_3D('',#758,#510,#511);
#420=AXIS2_PLACEMENT_3D('',#760,#513,#514);
#421=AXIS2_PLACEMENT_3D('',#762,#516,#517);
#422=AXIS2_PLACEMENT_3D('',#764,#519,#520);
#423=AXIS2_PLACEMENT_3D('',#766,#522,#523);
#424=AXIS2_PLACEMENT_3D('',#768,#525,#526);
#425=DIRECTION('axis',(0.,0.,1.));
#426=DIRECTION('refdir',(1.,0.,0.));
#427=DIRECTION('center_axis',(0.,0.,1.));
#428=DIRECTION('ref_axis',(1.,0.,0.));
#429=DIRECTION('center_axis',(0.,0.,-1.));
#430=DIRECTION('ref_axis',(1.,0.,0.));
#431=DIRECTION('center_axis',(1.22464679914735E-16,-1.,0.));
#432=DIRECTION('ref_axis',(-1.,-1.22464679914735E-16,0.));
#433=DIRECTION('center_axis',(0.,0.,1.));
#434=DIRECTION('ref_axis',(1.,0.,0.));
#435=DIRECTION('center_axis',(0.,0.,1.));
#436=DIRECTION('ref_axis',(1.,0.,0.));
#437=DIRECTION('center_axis',(0.,0.,1.));
#438=DIRECTION('ref_axis',(-1.,0.,0.));
#439=DIRECTION('center_axis',(0.,0.,-1.));
#440=DIRECTION('ref_axis',(-1.,0.,0.));
#441=DIRECTION('',(0.,0.,-1.));
#442=DIRECTION('',(0.,0.,-1.));
#443=DIRECTION('center_axis',(0.,0.,-1.));
#444=DIRECTION('ref_axis',(-1.,0.,0.));
#445=DIRECTION('center_axis',(0.,0.,1.));
#446=DIRECTION('ref_axis',(1.,1.22464679914735E-16,0.));
#447=DIRECTION('center_axis',(0.,0.,1.));
#448=DIRECTION('ref_axis',(-1.83697019872103E-16,-1.,0.));
#449=DIRECTION('center_axis',(0.,0.,1.));
#450=DIRECTION('ref_axis',(-1.,1.22464679914735E-16,0.));
#451=DIRECTION('center_axis',(0.,0.,1.));
#452=DIRECTION('ref_axis',(6.12323399573677E-17,1.,0.));
#453=DIRECTION('center_axis',(0.,0.,1.));
#454=DIRECTION('ref_axis',(1.,0.,0.));
#455=DIRECTION('center_axis',(0.,0.,1.));
#456=DIRECTION('ref_axis',(1.,0.,0.));
#457=DIRECTION('center_axis',(0.,0.,1.));
#458=DIRECTION('ref_axis',(-1.,1.22464679914735E-16,0.));
#459=DIRECTION('center_axis',(1.22464679914735E-16,-1.,0.));
#460=DIRECTION('ref_axis',(-1.,-1.22464679914735E-16,0.));
#461=DIRECTION('center_axis',(0.,0.,-1.));
#462=DIRECTION('ref_axis',(-1.,1.22464679914735E-16,0.));
#463=DIRECTION('center_axis',(0.,0.,1.));
#464=DIRECTION('ref_axis',(1.,0.,0.));
#465=DIRECTION('center_axis',(0.,0.,1.));
#466=DIRECTION('ref_axis',(-1.,1.22464679914735E-16,0.));
#467=DIRECTION('',(0.,0.,-1.));
#468=DIRECTION('',(0.,0.,-1.));
#469=DIRECTION('center_axis',(0.,0.,-1.));
#470=DIRECTION('ref_axis',(-1.,0.,0.));
#471=DIRECTION('center_axis',(0.,0.,-1.));
#472=DIRECTION('ref_axis',(1.,1.22464679914735E-16,0.));
#473=DIRECTION('center_axis',(0.,0.,-1.));
#474=DIRECTION('ref_axis',(-1.83697019872103E-16,-1.,0.));
#475=DIRECTION('center_axis',(0.,0.,-1.));
#476=DIRECTION('ref_axis',(-1.,1.22464679914735E-16,0.));
#477=DIRECTION('center_axis',(0.,0.,-1.));
#478=DIRECTION('ref_axis',(6.12323399573677E-17,1.,0.));
#479=DIRECTION('center_axis',(0.,0.,-1.));
#480=DIRECTION('ref_axis',(1.,0.,0.));
#481=DIRECTION('center_axis',(0.,0.,-1.));
#482=DIRECTION('ref_axis',(-1.,0.,0.));
#483=DIRECTION('center_axis',(0.,0.,1.));
#484=DIRECTION('ref_axis',(-1.,0.,0.));
#485=DIRECTION('center_axis',(-1.22464679914735E-16,-1.,0.));
#486=DIRECTION('ref_axis',(1.,-1.22464679914735E-16,0.));
#487=DIRECTION('center_axis',(0.,0.,1.));
#488=DIRECTION('ref_axis',(1.,0.,0.));
#489=DIRECTION('center_axis',(0.,0.,-1.));
#490=DIRECTION('ref_axis',(-1.,1.22464679914735E-16,0.));
#491=DIRECTION('center_axis',(0.,0.,1.));
#492=DIRECTION('ref_axis',(1.,0.,0.));
#493=DIRECTION('center_axis',(1.22464679914735E-16,-1.,0.));
#494=DIRECTION('ref_axis',(-1.,-1.22464679914735E-16,0.));
#495=DIRECTION('center_axis',(0.,0.,-1.));
#496=DIRECTION('ref_axis',(-1.,0.,0.));
#497=DIRECTION('center_axis',(-1.22464679914735E-16,-1.,0.));
#498=DIRECTION('ref_axis',(1.,-1.22464679914735E-16,0.));
#499=DIRECTION('center_axis',(0.,0.,-1.));
#500=DIRECTION('ref_axis',(1.,1.22464679914735E-16,0.));
#501=DIRECTION('center_axis',(0.,0.,-1.));
#502=DIRECTION('ref_axis',(-1.,0.,0.));
#503=DIRECTION('',(0.,0.,1.));
#504=DIRECTION('center_axis',(0.,0.,1.));
#505=DIRECTION('ref_axis',(1.,1.22464679914735E-16,0.));
#506=DIRECTION('center_axis',(0.,0.,-1.));
#507=DIRECTION('ref_axis',(-1.,0.,0.));
#508=DIRECTION('center_axis',(-1.22464679914735E-16,-1.,0.));
#509=DIRECTION('ref_axis',(1.,-1.22464679914735E-16,0.));
#510=DIRECTION('center_axis',(1.,0.,0.));
#511=DIRECTION('ref_axis',(0.,1.,0.));
#512=DIRECTION('',(1.,0.,0.));
#513=DIRECTION('center_axis',(1.,0.,0.));
#514=DIRECTION('ref_axis',(0.,1.,0.));
#515=DIRECTION('',(1.,0.,0.));
#516=DIRECTION('center_axis',(0.,0.,1.));
#517=DIRECTION('ref_axis',(-1.83697019872103E-16,-1.,0.));
#518=DIRECTION('',(0.,0.,-1.));
#519=DIRECTION('center_axis',(0.,0.,1.));
#520=DIRECTION('ref_axis',(-1.,1.22464679914735E-16,0.));
#521=DIRECTION('',(0.,0.,-1.));
#522=DIRECTION('center_axis',(0.,0.,1.));
#523=DIRECTION('ref_axis',(6.12323399573677E-17,1.,0.));
#524=DIRECTION('',(0.,0.,-1.));
#525=DIRECTION('center_axis',(0.,0.,1.));
#526=DIRECTION('ref_axis',(1.,0.,0.));
#527=DIRECTION('',(0.,0.,-1.));
#528=CARTESIAN_POINT('',(0.,0.,0.));
#529=CARTESIAN_POINT('Origin',(0.,0.,-2.2));
#530=CARTESIAN_POINT('',(-2.65,3.24531401774049E-16,-2.35));
#531=CARTESIAN_POINT('Origin',(0.,0.,-2.35));
#532=CARTESIAN_POINT('',(-2.5,-3.06161699786838E-16,-2.2));
#533=CARTESIAN_POINT('Origin',(-2.65,-3.24531401774049E-16,-2.2));
#534=CARTESIAN_POINT('',(2.5,3.06161699786838E-16,-2.2));
#535=CARTESIAN_POINT('Origin',(0.,0.,-2.2));
#536=CARTESIAN_POINT('Origin',(0.,0.,-2.2));
#537=CARTESIAN_POINT('Origin',(0.,0.,0.));
#538=CARTESIAN_POINT('',(2.5,-3.06161699786838E-16,9.85));
#539=CARTESIAN_POINT('Origin',(0.,0.,9.85));
#540=CARTESIAN_POINT('',(2.5,-2.03914977042615E-17,7.));
#541=CARTESIAN_POINT('',(2.5,3.06161699786838E-16,0.));
#542=CARTESIAN_POINT('',(2.13541565040626,-1.3,5.7));
#543=CARTESIAN_POINT('Ctrl Pts',(2.5,-2.08166817117217E-16,7.));
#544=CARTESIAN_POINT('Ctrl Pts',(2.5,-0.166614743258745,7.));
#545=CARTESIAN_POINT('Ctrl Pts',(2.48182800319548,-0.342225045574431,6.96604472945231));
#546=CARTESIAN_POINT('Ctrl Pts',(2.41634832474605,-0.661701575445863,6.83231540605838));
#547=CARTESIAN_POINT('Ctrl Pts',(2.36972831192598,-0.805775586632481,6.73270204445254));
#548=CARTESIAN_POINT('Ctrl Pts',(2.27985591112848,-1.0330737036707,6.50540392741432));
#549=CARTESIAN_POINT('Ctrl Pts',(2.23011653169676,-1.13241671719135,6.36145131422627));
#550=CARTESIAN_POINT('Ctrl Pts',(2.15713338503306,-1.26592399425303,6.04252170923281));
#551=CARTESIAN_POINT('Ctrl Pts',(2.13541565040626,-1.3,5.86716050513956));
#552=CARTESIAN_POINT('Ctrl Pts',(2.13541565040626,-1.3,5.7));
#553=CARTESIAN_POINT('',(2.5,1.35733615133651E-16,4.4));
#554=CARTESIAN_POINT('Ctrl Pts',(2.13541565040626,-1.3,5.7));
#555=CARTESIAN_POINT('Ctrl Pts',(2.13541565040626,-1.3,5.53283949486045));
#556=CARTESIAN_POINT('Ctrl Pts',(2.15713338503306,-1.26592399425303,5.35747829076719));
#557=CARTESIAN_POINT('Ctrl Pts',(2.23011653169676,-1.13241671719135,5.03854868577373));
#558=CARTESIAN_POINT('Ctrl Pts',(2.27985591112848,-1.0330737036707,4.89459607258568));
#559=CARTESIAN_POINT('Ctrl Pts',(2.36972831192598,-0.805775586632481,4.66729795554746));
#560=CARTESIAN_POINT('Ctrl Pts',(2.41634832474605,-0.661701575445864,4.56768459394162));
#561=CARTESIAN_POINT('Ctrl Pts',(2.48182800319548,-0.342225045574431,4.43395527054769));
#562=CARTESIAN_POINT('Ctrl Pts',(2.5,-0.166614743258745,4.4));
#563=CARTESIAN_POINT('Ctrl Pts',(2.5,-6.93889390390723E-17,4.4));
#564=CARTESIAN_POINT('',(2.5,3.06161699786838E-16,0.));
#565=CARTESIAN_POINT('',(2.13541565040626,1.3,5.7));
#566=CARTESIAN_POINT('Ctrl Pts',(2.5,-3.46944695195361E-17,4.4));
#567=CARTESIAN_POINT('Ctrl Pts',(2.5,0.166614743258745,4.4));
#568=CARTESIAN_POINT('Ctrl Pts',(2.48182800319548,0.34222504557443,4.43395527054769));
#569=CARTESIAN_POINT('Ctrl Pts',(2.41634832474605,0.661701575445863,4.56768459394162));
#570=CARTESIAN_POINT('Ctrl Pts',(2.36972831192598,0.805775586632481,4.66729795554746));
#571=CARTESIAN_POINT('Ctrl Pts',(2.27985591112848,1.0330737036707,4.89459607258568));
#572=CARTESIAN_POINT('Ctrl Pts',(2.23011653169676,1.13241671719135,5.03854868577373));
#573=CARTESIAN_POINT('Ctrl Pts',(2.15713338503306,1.26592399425303,5.35747829076719));
#574=CARTESIAN_POINT('Ctrl Pts',(2.13541565040626,1.3,5.53283949486044));
#575=CARTESIAN_POINT('Ctrl Pts',(2.13541565040626,1.3,5.7));
#576=CARTESIAN_POINT('Ctrl Pts',(2.13541565040626,1.3,5.7));
#577=CARTESIAN_POINT('Ctrl Pts',(2.13541565040626,1.3,5.86716050513956));
#578=CARTESIAN_POINT('Ctrl Pts',(2.15713338503306,1.26592399425303,6.04252170923281));
#579=CARTESIAN_POINT('Ctrl Pts',(2.23011653169676,1.13241671719135,6.36145131422627));
#580=CARTESIAN_POINT('Ctrl Pts',(2.27985591112848,1.0330737036707,6.50540392741433));
#581=CARTESIAN_POINT('Ctrl Pts',(2.36972831192598,0.80577558663248,6.73270204445255));
#582=CARTESIAN_POINT('Ctrl Pts',(2.41634832474605,0.661701575445863,6.83231540605838));
#583=CARTESIAN_POINT('Ctrl Pts',(2.48182800319548,0.34222504557443,6.96604472945231));
#584=CARTESIAN_POINT('Ctrl Pts',(2.5,0.166614743258744,7.));
#585=CARTESIAN_POINT('Ctrl Pts',(2.5,-2.08166817117217E-16,7.));
#586=CARTESIAN_POINT('',(-2.13541565040626,1.3,5.7));
#587=CARTESIAN_POINT('',(-2.13541565040626,-1.3,5.7));
#588=CARTESIAN_POINT('Ctrl Pts',(-2.13541565040626,1.3,5.7));
#589=CARTESIAN_POINT('Ctrl Pts',(-2.13541565040626,1.3,5.53283949486044));
#590=CARTESIAN_POINT('Ctrl Pts',(-2.15713338503306,1.26592399425303,5.35747829076719));
#591=CARTESIAN_POINT('Ctrl Pts',(-2.23011653169676,1.13241671719135,5.03854868577373));
#592=CARTESIAN_POINT('Ctrl Pts',(-2.27985591112848,1.0330737036707,4.89459607258568));
#593=CARTESIAN_POINT('Ctrl Pts',(-2.36972831192598,0.805775586632481,4.66729795554746));
#594=CARTESIAN_POINT('Ctrl Pts',(-2.41634832474605,0.661701575445863,4.56768459394162));
#595=CARTESIAN_POINT('Ctrl Pts',(-2.48182800319548,0.34222504557443,4.43395527054769));
#596=CARTESIAN_POINT('Ctrl Pts',(-2.5,0.166614743258745,4.4));
#597=CARTESIAN_POINT('Ctrl Pts',(-2.5,-0.166614743258745,4.4));
#598=CARTESIAN_POINT('Ctrl Pts',(-2.48182800319548,-0.342225045574431,4.43395527054769));
#599=CARTESIAN_POINT('Ctrl Pts',(-2.41634832474605,-0.661701575445863,4.56768459394162));
#600=CARTESIAN_POINT('Ctrl Pts',(-2.36972831192598,-0.805775586632481,4.66729795554746));
#601=CARTESIAN_POINT('Ctrl Pts',(-2.27985591112848,-1.0330737036707,4.89459607258568));
#602=CARTESIAN_POINT('Ctrl Pts',(-2.23011653169676,-1.13241671719135,5.03854868577373));
#603=CARTESIAN_POINT('Ctrl Pts',(-2.15713338503306,-1.26592399425303,5.35747829076719));
#604=CARTESIAN_POINT('Ctrl Pts',(-2.13541565040626,-1.3,5.53283949486045));
#605=CARTESIAN_POINT('Ctrl Pts',(-2.13541565040626,-1.3,5.7));
#606=CARTESIAN_POINT('Ctrl Pts',(-2.13541565040626,-1.3,5.7));
#607=CARTESIAN_POINT('Ctrl Pts',(-2.13541565040626,-1.3,5.86716050513956));
#608=CARTESIAN_POINT('Ctrl Pts',(-2.15713338503306,-1.26592399425303,6.04252170923281));
#609=CARTESIAN_POINT('Ctrl Pts',(-2.23011653169676,-1.13241671719135,6.36145131422627));
#610=CARTESIAN_POINT('Ctrl Pts',(-2.27985591112848,-1.0330737036707,6.50540392741432));
#611=CARTESIAN_POINT('Ctrl Pts',(-2.36972831192598,-0.805775586632481,6.73270204445254));
#612=CARTESIAN_POINT('Ctrl Pts',(-2.41634832474605,-0.661701575445863,6.83231540605838));
#613=CARTESIAN_POINT('Ctrl Pts',(-2.48182800319549,-0.34222504557443,6.96604472945231));
#614=CARTESIAN_POINT('Ctrl Pts',(-2.5,-0.166614743258745,7.));
#615=CARTESIAN_POINT('Ctrl Pts',(-2.5,0.166614743258744,7.));
#616=CARTESIAN_POINT('Ctrl Pts',(-2.48182800319549,0.34222504557443,6.96604472945231));
#617=CARTESIAN_POINT('Ctrl Pts',(-2.41634832474605,0.661701575445863,6.83231540605838));
#618=CARTESIAN_POINT('Ctrl Pts',(-2.36972831192598,0.80577558663248,6.73270204445254));
#619=CARTESIAN_POINT('Ctrl Pts',(-2.27985591112848,1.0330737036707,6.50540392741433));
#620=CARTESIAN_POINT('Ctrl Pts',(-2.23011653169676,1.13241671719135,6.36145131422627));
#621=CARTESIAN_POINT('Ctrl Pts',(-2.15713338503306,1.26592399425303,6.04252170923281));
#622=CARTESIAN_POINT('Ctrl Pts',(-2.13541565040626,1.3,5.86716050513956));
#623=CARTESIAN_POINT('Ctrl Pts',(-2.13541565040626,1.3,5.7));
#624=CARTESIAN_POINT('Origin',(0.,0.,-2.35));
#625=CARTESIAN_POINT('',(10.7,-1.31037207508767E-15,-2.35));
#626=CARTESIAN_POINT('Origin',(0.,0.,-2.35));
#627=CARTESIAN_POINT('',(8.2,1.5,-2.35));
#628=CARTESIAN_POINT('Origin',(8.2,-1.50631556295124E-15,-2.35));
#629=CARTESIAN_POINT('',(1.5,-8.2,-2.35));
#630=CARTESIAN_POINT('Origin',(-1.00421037530083E-15,-8.2,-2.35));
#631=CARTESIAN_POINT('',(-8.2,-1.5,-2.35));
#632=CARTESIAN_POINT('Origin',(-8.2,5.02105187650415E-16,-2.35));
#633=CARTESIAN_POINT('',(-1.5,8.2,-2.35));
#634=CARTESIAN_POINT('Origin',(0.,8.2,-2.35));
#635=CARTESIAN_POINT('Origin',(0.,0.,0.15));
#636=CARTESIAN_POINT('',(-5.15,-6.30693101560887E-16,0.));
#637=CARTESIAN_POINT('Origin',(0.,0.,0.));
#638=CARTESIAN_POINT('',(-5.,-6.12323399573677E-16,0.15));
#639=CARTESIAN_POINT('Origin',(-5.15,-6.30693101560887E-16,0.15));
#640=CARTESIAN_POINT('Origin',(0.,0.,0.15));
#641=CARTESIAN_POINT('Origin',(0.,0.,0.));
#642=CARTESIAN_POINT('',(-5.,-6.12323399573677E-16,9.85));
#643=CARTESIAN_POINT('Origin',(0.,0.,9.85));
#644=CARTESIAN_POINT('',(-5.,-2.71467230267302E-16,7.));
#645=CARTESIAN_POINT('',(-5.,-6.12323399573677E-16,0.));
#646=CARTESIAN_POINT('',(-4.82804308182932,-1.3,5.7));
#647=CARTESIAN_POINT('Ctrl Pts',(-5.,-3.46944695195361E-17,7.));
#648=CARTESIAN_POINT('Ctrl Pts',(-5.,-0.164032748626163,7.));
#649=CARTESIAN_POINT('Ctrl Pts',(-4.99112141383552,-0.338492152411536,6.96706427740737));
#650=CARTESIAN_POINT('Ctrl Pts',(-4.95904761708503,-0.658571665059363,6.8341570251573));
#651=CARTESIAN_POINT('Ctrl Pts',(-4.93628041072499,-0.804251421167127,6.7342262099179));
#652=CARTESIAN_POINT('Ctrl Pts',(-4.89326334703746,-1.03424511530045,6.50423251578458));
#653=CARTESIAN_POINT('Ctrl Pts',(-4.87015028662769,-1.13416120781459,6.35856059831928));
#654=CARTESIAN_POINT('Ctrl Pts',(-4.83727716857535,-1.26705769140541,6.03850900708893));
#655=CARTESIAN_POINT('Ctrl Pts',(-4.82804308182932,-1.3,5.86405971768552));
#656=CARTESIAN_POINT('Ctrl Pts',(-4.82804308182932,-1.3,5.7));
#657=CARTESIAN_POINT('',(-5.,-4.44939577864983E-16,4.4));
#658=CARTESIAN_POINT('Ctrl Pts',(-4.82804308182932,-1.3,5.7));
#659=CARTESIAN_POINT('Ctrl Pts',(-4.82804308182932,-1.3,5.53594028231449));
#660=CARTESIAN_POINT('Ctrl Pts',(-4.83727716857535,-1.26705769140541,5.36149099291107));
#661=CARTESIAN_POINT('Ctrl Pts',(-4.87015028662769,-1.13416120781459,5.04143940168072));
#662=CARTESIAN_POINT('Ctrl Pts',(-4.89326334703746,-1.03424511530045,4.89576748421542));
#663=CARTESIAN_POINT('Ctrl Pts',(-4.93628041072499,-0.804251421167128,4.6657737900821));
#664=CARTESIAN_POINT('Ctrl Pts',(-4.95904761708503,-0.658571665059363,4.5658429748427));
#665=CARTESIAN_POINT('Ctrl Pts',(-4.99112141383552,-0.338492152411536,4.43293572259264));
#666=CARTESIAN_POINT('Ctrl Pts',(-5.,-0.164032748626163,4.4));
#667=CARTESIAN_POINT('Ctrl Pts',(-5.,-2.77555756156289E-16,4.4));
#668=CARTESIAN_POINT('',(-5.,-6.12323399573677E-16,0.));
#669=CARTESIAN_POINT('',(-4.82804308182932,1.3,5.7));
#670=CARTESIAN_POINT('Ctrl Pts',(-5.,-2.77555756156289E-16,4.4));
#671=CARTESIAN_POINT('Ctrl Pts',(-5.,0.164032748626162,4.4));
#672=CARTESIAN_POINT('Ctrl Pts',(-4.99112141383552,0.338492152411535,4.43293572259264));
#673=CARTESIAN_POINT('Ctrl Pts',(-4.95904761708503,0.658571665059362,4.5658429748427));
#674=CARTESIAN_POINT('Ctrl Pts',(-4.93628041072499,0.804251421167127,4.6657737900821));
#675=CARTESIAN_POINT('Ctrl Pts',(-4.89326334703746,1.03424511530045,4.89576748421542));
#676=CARTESIAN_POINT('Ctrl Pts',(-4.87015028662769,1.13416120781459,5.04143940168072));
#677=CARTESIAN_POINT('Ctrl Pts',(-4.83727716857535,1.26705769140541,5.36149099291107));
#678=CARTESIAN_POINT('Ctrl Pts',(-4.82804308182932,1.3,5.53594028231449));
#679=CARTESIAN_POINT('Ctrl Pts',(-4.82804308182932,1.3,5.7));
#680=CARTESIAN_POINT('Ctrl Pts',(-4.82804308182932,1.3,5.7));
#681=CARTESIAN_POINT('Ctrl Pts',(-4.82804308182932,1.3,5.86405971768552));
#682=CARTESIAN_POINT('Ctrl Pts',(-4.83727716857535,1.26705769140541,6.03850900708893));
#683=CARTESIAN_POINT('Ctrl Pts',(-4.87015028662769,1.13416120781459,6.35856059831928));
#684=CARTESIAN_POINT('Ctrl Pts',(-4.89326334703746,1.03424511530045,6.50423251578458));
#685=CARTESIAN_POINT('Ctrl Pts',(-4.93628041072499,0.804251421167128,6.7342262099179));
#686=CARTESIAN_POINT('Ctrl Pts',(-4.95904761708503,0.658571665059363,6.8341570251573));
#687=CARTESIAN_POINT('Ctrl Pts',(-4.99112141383552,0.338492152411535,6.96706427740737));
#688=CARTESIAN_POINT('Ctrl Pts',(-5.,0.164032748626163,7.));
#689=CARTESIAN_POINT('Ctrl Pts',(-5.,0.,7.));
#690=CARTESIAN_POINT('',(4.82804308182932,1.3,5.7));
#691=CARTESIAN_POINT('',(4.82804308182932,-1.3,5.7));
#692=CARTESIAN_POINT('Ctrl Pts',(4.82804308182932,1.3,5.7));
#693=CARTESIAN_POINT('Ctrl Pts',(4.82804308182932,1.3,5.53594028231449));
#694=CARTESIAN_POINT('Ctrl Pts',(4.83727716857535,1.26705769140541,5.36149099291107));
#695=CARTESIAN_POINT('Ctrl Pts',(4.87015028662769,1.13416120781459,5.04143940168072));
#696=CARTESIAN_POINT('Ctrl Pts',(4.89326334703746,1.03424511530045,4.89576748421542));
#697=CARTESIAN_POINT('Ctrl Pts',(4.93628041072499,0.804251421167127,4.66577379008211));
#698=CARTESIAN_POINT('Ctrl Pts',(4.95904761708503,0.658571665059363,4.5658429748427));
#699=CARTESIAN_POINT('Ctrl Pts',(4.99112141383552,0.338492152411535,4.43293572259264));
#700=CARTESIAN_POINT('Ctrl Pts',(5.,0.164032748626163,4.4));
#701=CARTESIAN_POINT('Ctrl Pts',(5.,-0.164032748626163,4.4));
#702=CARTESIAN_POINT('Ctrl Pts',(4.99112141383552,-0.338492152411536,4.43293572259264));
#703=CARTESIAN_POINT('Ctrl Pts',(4.95904761708503,-0.658571665059363,4.5658429748427));
#704=CARTESIAN_POINT('Ctrl Pts',(4.93628041072499,-0.804251421167128,4.66577379008211));
#705=CARTESIAN_POINT('Ctrl Pts',(4.89326334703746,-1.03424511530045,4.89576748421542));
#706=CARTESIAN_POINT('Ctrl Pts',(4.87015028662769,-1.13416120781459,5.04143940168072));
#707=CARTESIAN_POINT('Ctrl Pts',(4.83727716857535,-1.26705769140541,5.36149099291107));
#708=CARTESIAN_POINT('Ctrl Pts',(4.82804308182932,-1.3,5.53594028231449));
#709=CARTESIAN_POINT('Ctrl Pts',(4.82804308182932,-1.3,5.7));
#710=CARTESIAN_POINT('Ctrl Pts',(4.82804308182932,-1.3,5.7));
#711=CARTESIAN_POINT('Ctrl Pts',(4.82804308182932,-1.3,5.86405971768551));
#712=CARTESIAN_POINT('Ctrl Pts',(4.83727716857535,-1.26705769140541,6.03850900708894));
#713=CARTESIAN_POINT('Ctrl Pts',(4.87015028662769,-1.13416120781459,6.35856059831928));
#714=CARTESIAN_POINT('Ctrl Pts',(4.89326334703746,-1.03424511530045,6.50423251578458));
#715=CARTESIAN_POINT('Ctrl Pts',(4.93628041072499,-0.804251421167127,6.7342262099179));
#716=CARTESIAN_POINT('Ctrl Pts',(4.95904761708503,-0.658571665059363,6.8341570251573));
#717=CARTESIAN_POINT('Ctrl Pts',(4.99112141383552,-0.338492152411536,6.96706427740737));
#718=CARTESIAN_POINT('Ctrl Pts',(5.,-0.164032748626163,7.));
#719=CARTESIAN_POINT('Ctrl Pts',(5.,0.164032748626163,7.));
#720=CARTESIAN_POINT('Ctrl Pts',(4.99112141383552,0.338492152411536,6.96706427740737));
#721=CARTESIAN_POINT('Ctrl Pts',(4.95904761708503,0.658571665059363,6.8341570251573));
#722=CARTESIAN_POINT('Ctrl Pts',(4.93628041072499,0.804251421167128,6.7342262099179));
#723=CARTESIAN_POINT('Ctrl Pts',(4.89326334703746,1.03424511530045,6.50423251578458));
#724=CARTESIAN_POINT('Ctrl Pts',(4.87015028662769,1.13416120781459,6.35856059831928));
#725=CARTESIAN_POINT('Ctrl Pts',(4.83727716857535,1.26705769140541,6.03850900708893));
#726=CARTESIAN_POINT('Ctrl Pts',(4.82804308182932,1.3,5.86405971768552));
#727=CARTESIAN_POINT('Ctrl Pts',(4.82804308182932,1.3,5.7));
#728=CARTESIAN_POINT('Origin',(0.,0.,0.));
#729=CARTESIAN_POINT('',(10.7,-1.31037207508767E-15,0.));
#730=CARTESIAN_POINT('Origin',(0.,0.,0.));
#731=CARTESIAN_POINT('',(8.2,1.5,0.));
#732=CARTESIAN_POINT('Origin',(8.2,-1.50631556295124E-15,0.));
#733=CARTESIAN_POINT('',(1.5,-8.2,0.));
#734=CARTESIAN_POINT('Origin',(-1.00421037530083E-15,-8.2,0.));
#735=CARTESIAN_POINT('',(-8.2,-1.5,0.));
#736=CARTESIAN_POINT('Origin',(-8.2,5.02105187650415E-16,0.));
#737=CARTESIAN_POINT('',(-1.5,8.2,0.));
#738=CARTESIAN_POINT('Origin',(0.,8.2,0.));
#739=CARTESIAN_POINT('Origin',(0.,0.,9.85));
#740=CARTESIAN_POINT('',(2.65,3.24531401774049E-16,10.));
#741=CARTESIAN_POINT('Origin',(0.,0.,10.));
#742=CARTESIAN_POINT('Origin',(2.65,-3.24531401774049E-16,9.85));
#743=CARTESIAN_POINT('Origin',(0.,0.,10.));
#744=CARTESIAN_POINT('',(-4.85,-5.93953697586466E-16,10.));
#745=CARTESIAN_POINT('Origin',(0.,0.,10.));
#746=CARTESIAN_POINT('Origin',(0.,0.,9.85));
#747=CARTESIAN_POINT('Origin',(-4.85,-5.93953697586466E-16,9.85));
#748=CARTESIAN_POINT('Origin',(0.,0.,-2.05));
#749=CARTESIAN_POINT('',(11.,-1.34711147906209E-15,-2.05));
#750=CARTESIAN_POINT('Origin',(10.7,-1.31037207508767E-15,-2.05));
#751=CARTESIAN_POINT('Origin',(0.,0.,-2.05));
#752=CARTESIAN_POINT('Origin',(0.,0.,0.));
#753=CARTESIAN_POINT('',(11.,-1.34711147906209E-15,-0.3));
#754=CARTESIAN_POINT('',(11.,-1.34711147906209E-15,0.));
#755=CARTESIAN_POINT('Origin',(0.,0.,-0.3));
#756=CARTESIAN_POINT('Origin',(0.,0.,-0.3));
#757=CARTESIAN_POINT('Origin',(10.7,-1.31037207508767E-15,-0.3));
#758=CARTESIAN_POINT('Origin',(0.,0.,5.7));
#759=CARTESIAN_POINT('',(0.,-1.3,5.7));
#760=CARTESIAN_POINT('Origin',(0.,0.,5.7));
#761=CARTESIAN_POINT('',(0.,-1.3,5.7));
#762=CARTESIAN_POINT('Origin',(8.2,-1.50631556295124E-15,-33.4742064879812));
#763=CARTESIAN_POINT('',(8.2,1.5,-33.4742064879812));
#764=CARTESIAN_POINT('Origin',(-1.00421037530083E-15,-8.2,-33.4742064879812));
#765=CARTESIAN_POINT('',(1.5,-8.2,-33.4742064879812));
#766=CARTESIAN_POINT('Origin',(-8.2,5.02105187650415E-16,-33.4742064879812));
#767=CARTESIAN_POINT('',(-8.2,-1.5,-33.4742064879812));
#768=CARTESIAN_POINT('Origin',(0.,8.2,-33.4742064879812));
#769=CARTESIAN_POINT('',(-1.5,8.2,-33.4742064879812));
#770=UNCERTAINTY_MEASURE_WITH_UNIT(LENGTH_MEASURE(0.01),#774,
'DISTANCE_ACCURACY_VALUE',
'Maximum model space distance between geometric entities at asserted c
onnectivities');
#771=UNCERTAINTY_MEASURE_WITH_UNIT(LENGTH_MEASURE(0.01),#774,
'DISTANCE_ACCURACY_VALUE',
'Maximum model space distance between geometric entities at asserted c
onnectivities');
#772=(
GEOMETRIC_REPRESENTATION_CONTEXT(3)
GLOBAL_UNCERTAINTY_ASSIGNED_CONTEXT((#770))
GLOBAL_UNIT_ASSIGNED_CONTEXT((#774,#776,#777))
REPRESENTATION_CONTEXT('','3D')
);
#773=(
GEOMETRIC_REPRESENTATION_CONTEXT(3)
GLOBAL_UNCERTAINTY_ASSIGNED_CONTEXT((#771))
GLOBAL_UNIT_ASSIGNED_CONTEXT((#774,#776,#777))
REPRESENTATION_CONTEXT('','3D')
);
#774=(
LENGTH_UNIT()
NAMED_UNIT(*)
SI_UNIT(.MILLI.,.METRE.)
);
#775=(
LENGTH_UNIT()
NAMED_UNIT(*)
SI_UNIT(.CENTI.,.METRE.)
);
#776=(
NAMED_UNIT(*)
PLANE_ANGLE_UNIT()
SI_UNIT($,.RADIAN.)
);
#777=(
NAMED_UNIT(*)
SI_UNIT($,.STERADIAN.)
SOLID_ANGLE_UNIT()
);
#778=SHAPE_DEFINITION_REPRESENTATION(#779,#780);
#779=PRODUCT_DEFINITION_SHAPE('',$,#782);
#780=SHAPE_REPRESENTATION('',(#379),#772);
#781=PRODUCT_DEFINITION_CONTEXT('part definition',#786,'design');
#782=PRODUCT_DEFINITION('COUPLE FLANGE','COUPLE FLANGE',#783,#781);
#783=PRODUCT_DEFINITION_FORMATION('',$,#788);
#784=PRODUCT_RELATED_PRODUCT_CATEGORY('COUPLE FLANGE','COUPLE FLANGE',(#788));
#785=APPLICATION_PROTOCOL_DEFINITION('international standard',
'automotive_design',2009,#786);
#786=APPLICATION_CONTEXT(
'Core Data for Automotive Mechanical Design Process');
#787=PRODUCT_CONTEXT('part definition',#786,'mechanical');
#788=PRODUCT('COUPLE FLANGE','COUPLE FLANGE',$,(#787));
#789=PRESENTATION_STYLE_ASSIGNMENT((#790));
#790=SURFACE_STYLE_USAGE(.BOTH.,#793);
#791=SURFACE_STYLE_RENDERING_WITH_PROPERTIES($,#797,(#792));
#792=SURFACE_STYLE_TRANSPARENT(0.);
#793=SURFACE_SIDE_STYLE('',(#794,#791));
#794=SURFACE_STYLE_FILL_AREA(#795);
#795=FILL_AREA_STYLE('',(#796));
#796=FILL_AREA_STYLE_COLOUR('',#797);
#797=COLOUR_RGB('',1.,0.945098039215686,0.694117647058824);
ENDSEC;
END-ISO-10303-21;
